<?xml version="1.0" encoding="UTF-8"?>
<svg id="Layer_2" data-name="Layer 2" xmlns="http://www.w3.org/2000/svg" viewBox="0 0 443.12 327.51">
  <defs>
    <style>
      .cls-1 {
        stroke-miterlimit: 10;
        stroke-width: 3.27px;
      }

      .cls-1, .cls-2, .cls-3, .cls-4, .cls-5, .cls-6 {
        fill: none;
      }

      .cls-1, .cls-2, .cls-3, .cls-4, .cls-5, .cls-6, .cls-7 {
        stroke: #52525b;
      }

      .cls-2 {
        stroke-width: 2.26px;
      }

      .cls-2, .cls-3, .cls-4, .cls-5, .cls-6 {
        stroke-linecap: round;
        stroke-linejoin: round;
      }

      .cls-3 {
        stroke-dasharray: 0 0 3.05 7.11;
        stroke-width: 2.02px;
      }

      .cls-4 {
        stroke-dasharray: 0 0 3.27 7.62;
      }

      .cls-4, .cls-6 {
        stroke-width: 2.16px;
      }

      .cls-5 {
        stroke-width: 2.42px;
      }

      .cls-7 {
        fill: #52525b;
      }
    </style>
  </defs>
  <g id="OBJECTS_copia" data-name="OBJECTS copia">
    <g>
      <line class="cls-6" x1="23.99" y1="157.85" x2="72.12" y2="157.85"/>
      <line class="cls-6" x1="83.68" y1="157.85" x2="93.95" y2="157.85"/>
      <line class="cls-6" x1="15.27" y1="144.3" x2="101.44" y2="144.3"/>
      <line class="cls-6" x1="8.17" y1="144.3" x2="1.08" y2="144.3"/>
      <line class="cls-6" x1="15.27" y1="131.43" x2="43.88" y2="131.43"/>
      <line class="cls-6" x1="51.54" y1="131.43" x2="111.62" y2="131.43"/>
    </g>
    <g>
      <line class="cls-6" x1="364.24" y1="265.34" x2="415.76" y2="265.34"/>
      <line class="cls-6" x1="424.13" y1="265.34" x2="431.58" y2="265.34"/>
      <line class="cls-6" x1="374.53" y1="251.79" x2="442.04" y2="251.79"/>
      <line class="cls-6" x1="369.39" y1="251.79" x2="364.24" y2="251.79"/>
      <line class="cls-6" x1="364.24" y1="238.92" x2="395.28" y2="238.92"/>
      <line class="cls-6" x1="400.83" y1="238.92" x2="424.13" y2="238.92"/>
    </g>
    <g>
      <path class="cls-1" d="M170.23,227h-13.11v23.05h-31.76v-23.05h-47.48v-23.62l49.52-72.4h29.73v71.99h13.11v24.03ZM125.35,202.97v-13.85c0-2.61.09-6.12.28-10.55.19-4.42.34-6.75.45-6.96h-.9c-1.85,4.18-3.94,8.09-6.27,11.73l-13.19,19.63h19.63Z"/>
      <path class="cls-1" d="M264.62,190.67c0,21.07-3.53,36.5-10.59,46.3-7.06,9.8-17.86,14.7-32.41,14.7s-24.95-5.12-32.17-15.35c-7.22-10.23-10.83-25.45-10.83-45.65s3.53-36.7,10.59-46.59c7.06-9.88,17.86-14.82,32.41-14.82s24.88,5.14,32.13,15.43c7.25,10.29,10.87,25.61,10.87,45.97ZM210.62,190.67c0,13.47.84,22.72,2.53,27.77,1.68,5.05,4.51,7.57,8.47,7.57s6.85-2.61,8.51-7.82c1.66-5.21,2.48-14.39,2.48-27.53s-.84-22.44-2.52-27.73c-1.68-5.29-4.51-7.94-8.47-7.94s-6.79,2.55-8.47,7.65c-1.68,5.1-2.53,14.44-2.53,28.02Z"/>
      <path class="cls-1" d="M365.69,227h-13.11v23.05h-31.76v-23.05h-47.48v-23.62l49.52-72.4h29.73v71.99h13.11v24.03ZM320.81,202.97v-13.85c0-2.61.09-6.12.29-10.55.19-4.42.34-6.75.45-6.96h-.9c-1.85,4.18-3.94,8.09-6.27,11.73l-13.19,19.63h19.63Z"/>
    </g>
    <g>
      <path class="cls-7" d="M161.89,302.22v-27.04h16.32v2.91h-13.05v9.14h12.2v2.91h-12.2v9.19h13.26v2.91h-16.53Z"/>
      <path class="cls-7" d="M184.13,302.22v-27.04h9.14c2.11,0,3.85.36,5.2,1.08,1.36.72,2.36,1.7,3.01,2.95.65,1.25.98,2.67.98,4.27s-.33,3.01-.98,4.24c-.65,1.23-1.65,2.2-3,2.9-1.35.7-3.07,1.05-5.16,1.05h-7.4v-2.96h7.29c1.44,0,2.61-.21,3.49-.63.88-.42,1.53-1.02,1.93-1.8.4-.78.6-1.71.6-2.79s-.2-2.03-.61-2.84c-.4-.81-1.05-1.44-1.94-1.88s-2.06-.67-3.53-.67h-5.76v24.14h-3.27ZM196.86,290.07l6.66,12.15h-3.8l-6.55-12.15h3.7Z"/>
      <path class="cls-7" d="M207.9,302.22v-27.04h9.14c2.11,0,3.85.36,5.2,1.08s2.36,1.7,3.01,2.95c.65,1.25.98,2.67.98,4.27s-.33,3.01-.98,4.24c-.65,1.23-1.65,2.2-3,2.9-1.35.7-3.07,1.05-5.16,1.05h-7.4v-2.96h7.29c1.44,0,2.61-.21,3.49-.63.88-.42,1.53-1.02,1.93-1.8.4-.78.6-1.71.6-2.79s-.2-2.03-.61-2.84c-.4-.81-1.05-1.44-1.94-1.88s-2.06-.67-3.53-.67h-5.76v24.14h-3.27ZM220.63,290.07l6.66,12.15h-3.8l-6.55-12.15h3.7Z"/>
      <path class="cls-7" d="M254.49,288.69c0,2.85-.52,5.32-1.55,7.4-1.03,2.08-2.44,3.68-4.24,4.81s-3.85,1.69-6.15,1.69-4.36-.56-6.15-1.69-3.21-2.73-4.24-4.81c-1.03-2.08-1.54-4.54-1.54-7.4s.51-5.32,1.54-7.39c1.03-2.08,2.44-3.68,4.24-4.81s3.85-1.69,6.15-1.69,4.36.56,6.15,1.69,3.21,2.73,4.24,4.81c1.03,2.08,1.55,4.54,1.55,7.39ZM251.32,288.69c0-2.34-.39-4.32-1.17-5.93-.78-1.61-1.83-2.83-3.16-3.66-1.33-.83-2.81-1.24-4.44-1.24s-3.12.41-4.44,1.24c-1.32.83-2.38,2.05-3.16,3.66-.78,1.61-1.17,3.59-1.17,5.93s.39,4.32,1.17,5.93c.78,1.61,1.83,2.83,3.16,3.66,1.33.83,2.81,1.24,4.44,1.24s3.12-.41,4.44-1.24c1.32-.83,2.38-2.05,3.16-3.66.78-1.61,1.17-3.59,1.17-5.93Z"/>
      <path class="cls-7" d="M259.98,302.22v-27.04h9.14c2.11,0,3.85.36,5.2,1.08s2.36,1.7,3.01,2.95.98,2.67.98,4.27-.33,3.01-.98,4.24c-.65,1.23-1.65,2.2-3,2.9-1.35.7-3.07,1.05-5.16,1.05h-7.4v-2.96h7.29c1.44,0,2.61-.21,3.49-.63.88-.42,1.53-1.02,1.93-1.8.4-.78.6-1.71.6-2.79s-.2-2.03-.61-2.84c-.41-.81-1.05-1.44-1.94-1.88-.89-.44-2.06-.67-3.53-.67h-5.76v24.14h-3.28ZM272.71,290.07l6.66,12.15h-3.8l-6.55-12.15h3.7Z"/>
    </g>
    <g>
      <line class="cls-6" x1="386.72" y1="154.92" x2="386.72" y2="143.88"/>
      <line class="cls-6" x1="379.02" y1="158.11" x2="371.21" y2="150.3"/>
      <line class="cls-6" x1="375.83" y1="165.81" x2="364.79" y2="165.81"/>
      <line class="cls-6" x1="379.02" y1="173.52" x2="371.21" y2="181.32"/>
      <line class="cls-6" x1="386.72" y1="176.71" x2="386.72" y2="187.75"/>
      <line class="cls-6" x1="394.43" y1="173.52" x2="402.24" y2="181.32"/>
      <line class="cls-6" x1="397.62" y1="165.81" x2="408.66" y2="165.81"/>
      <line class="cls-6" x1="394.43" y1="158.11" x2="402.24" y2="150.3"/>
    </g>
    <g>
      <line class="cls-6" x1="40.5" y1="209.88" x2="40.5" y2="201.9"/>
      <line class="cls-6" x1="34.93" y1="212.19" x2="29.28" y2="206.55"/>
      <line class="cls-6" x1="32.62" y1="217.76" x2="24.64" y2="217.76"/>
      <line class="cls-6" x1="34.93" y1="223.33" x2="29.28" y2="228.97"/>
      <line class="cls-6" x1="40.5" y1="225.64" x2="40.5" y2="233.62"/>
      <line class="cls-6" x1="46.07" y1="223.33" x2="51.71" y2="228.97"/>
      <line class="cls-6" x1="48.37" y1="217.76" x2="56.35" y2="217.76"/>
      <line class="cls-6" x1="46.07" y1="212.19" x2="51.71" y2="206.55"/>
    </g>
    <g>
      <line class="cls-6" x1="256.42" y1="45.07" x2="256.42" y2="37.09"/>
      <line class="cls-6" x1="250.85" y1="47.38" x2="245.21" y2="41.73"/>
      <line class="cls-6" x1="248.54" y1="52.95" x2="240.56" y2="52.95"/>
      <line class="cls-6" x1="250.85" y1="58.52" x2="245.21" y2="64.16"/>
      <line class="cls-6" x1="256.42" y1="60.82" x2="256.42" y2="68.8"/>
      <line class="cls-6" x1="261.99" y1="58.52" x2="267.63" y2="64.16"/>
      <line class="cls-6" x1="264.29" y1="52.95" x2="272.27" y2="52.95"/>
      <line class="cls-6" x1="261.99" y1="47.38" x2="267.63" y2="41.73"/>
    </g>
    <rect class="cls-5" x="80.11" y="266.71" width="273.76" height="43.1"/>
    <polyline class="cls-6" points="101.44 112.01 101.44 77.49 280.94 77.49 280.94 154.21"/>
    <polyline class="cls-6" points="217.67 52.95 217.67 96.18 336.7 96.18 336.7 115.85"/>
    <path class="cls-6" d="M105.73,116.3c0,2.37-1.92,4.28-4.28,4.28s-4.28-1.92-4.28-4.28,1.92-4.28,4.28-4.28,4.28,1.92,4.28,4.28Z"/>
    <circle class="cls-6" cx="217.67" cy="48.66" r="4.28"/>
    <path class="cls-6" d="M340.98,120.58c0,2.37-1.92,4.28-4.28,4.28s-4.28-1.92-4.28-4.28,1.92-4.28,4.28-4.28,4.28,1.92,4.28,4.28Z"/>
    <path class="cls-6" d="M285.22,159.2c0,2.37-1.92,4.28-4.28,4.28s-4.28-1.92-4.28-4.28,1.92-4.28,4.28-4.28,4.28,1.92,4.28,4.28Z"/>
    <g>
      <line class="cls-6" x1="73.53" y1="244.98" x2="63.4" y2="255.11"/>
      <line class="cls-6" x1="63.4" y1="244.98" x2="73.53" y2="255.11"/>
    </g>
    <g>
      <line class="cls-6" x1="78.6" y1="97.82" x2="68.46" y2="107.95"/>
      <line class="cls-6" x1="68.46" y1="97.82" x2="78.6" y2="107.95"/>
    </g>
    <g>
      <line class="cls-6" x1="407.3" y1="212.69" x2="397.17" y2="222.83"/>
      <line class="cls-6" x1="397.17" y1="212.69" x2="407.3" y2="222.83"/>
    </g>
    <path class="cls-2" d="M119.7,39.98c-3.23,0-6.19,1.16-8.49,3.09-2.35-7.06-8.99-12.16-16.84-12.16-8.79,0-16.06,6.39-17.49,14.77-.93-.27-1.9-.42-2.91-.42-5.84,0-10.58,4.74-10.58,10.58,0,5.37,4.01,9.8,9.2,10.48v.1h47.11c7.3,0,13.22-5.92,13.22-13.22s-5.92-13.22-13.22-13.22Z"/>
    <path class="cls-6" d="M364.84,107.23c2.35,0,4.5.84,6.17,2.24,1.7-5.13,6.53-8.83,12.24-8.83,6.38,0,11.67,4.64,12.7,10.73.67-.19,1.38-.3,2.12-.3,4.24,0,7.69,3.44,7.69,7.69,0,3.9-2.91,7.12-6.69,7.61v.07h-34.22c-5.3,0-9.61-4.3-9.61-9.61s4.3-9.61,9.61-9.61Z"/>
    <path class="cls-6" d="M412.02,288.93c-1.97,0-3.77.71-5.17,1.88-1.43-4.3-5.48-7.41-10.26-7.41-5.35,0-9.79,3.89-10.65,9-.56-.16-1.16-.25-1.77-.25-3.56,0-6.45,2.89-6.45,6.45,0,3.27,2.44,5.97,5.61,6.38v.06h28.7c4.45,0,8.06-3.61,8.06-8.06s-3.61-8.06-8.06-8.06Z"/>
    <path class="cls-6" d="M22.49,271.93c2.35,0,4.5.84,6.17,2.24,1.7-5.13,6.53-8.83,12.24-8.83,6.38,0,11.67,4.64,12.7,10.73.67-.19,1.38-.3,2.12-.3,4.24,0,7.69,3.44,7.69,7.69,0,3.9-2.91,7.12-6.69,7.61v.07H22.49c-5.3,0-9.61-4.3-9.61-9.61s4.3-9.61,9.61-9.61Z"/>
    <path class="cls-4" d="M132.93,33.63S193.37-15.64,275.49,7.06c86.26,23.85,103.53,85.36,103.53,85.36"/>
    <path class="cls-3" d="M41.67,176.86c-23.43,3.63-35.21,53.36-8.85,73.1"/>
    <path class="cls-4" d="M336.7,320.34s40.14,17.55,57.73-6.93"/>
    <line class="cls-6" x1="145.75" y1="120.58" x2="145.75" y2="95.23"/>
    <line class="cls-6" x1="139.63" y1="120.58" x2="139.63" y2="107.95"/>
    <line class="cls-6" x1="238.91" y1="126.44" x2="238.91" y2="107.91"/>
    <line class="cls-6" x1="231.95" y1="124.86" x2="231.95" y2="117.18"/>
    <line class="cls-6" x1="225.79" y1="124.86" x2="225.79" y2="112.01"/>
    <line class="cls-6" x1="151.63" y1="120.58" x2="151.63" y2="107.91"/>
    <line class="cls-6" x1="319.63" y1="124.11" x2="319.63" y2="118.44"/>
    <line class="cls-6" x1="313.51" y1="124.11" x2="313.51" y2="110.3"/>
    <line class="cls-6" x1="325.51" y1="124.11" x2="325.51" y2="114.24"/>
  </g>
</svg>