<svg xmlns="http://www.w3.org/2000/svg" viewBox="0 0 500 500"><g id="freepik--Floor--inject-192"><path d="M486.28,473.42c0,.14-105.8.26-236.27.26s-236.29-.12-236.29-.26,105.77-.26,236.29-.26S486.28,473.27,486.28,473.42Z" style="fill:#263238"></path></g><g id="freepik--Character--inject-192"><rect x="168.49" y="375.2" width="155.55" height="98.83" style="fill:#455a64"></rect><rect x="147.62" y="372.37" width="189.95" height="34.69" rx="17" style="fill:#455a64"></rect><path d="M324.25,406.59c0,.13-36.34.24-81.15.24s-81.16-.11-81.16-.24,36.33-.24,81.16-.24S324.25,406.45,324.25,406.59Z" style="fill:#263238"></path><path d="M189.27,474.82c-.14,0-.25-15.07-.25-33.65s.11-33.65.25-33.65.24,15.07.24,33.65S189.4,474.82,189.27,474.82Z" style="fill:#263238"></path><path d="M287.59,393.06a21.17,21.17,0,0,1-.61-2.55,34.24,34.24,0,0,0-2-6,35.47,35.47,0,0,0-3.07-5.5,21.9,21.9,0,0,1-1.49-2.17,10.57,10.57,0,0,1,1.77,2,28,28,0,0,1,5.13,11.59A10.35,10.35,0,0,1,287.59,393.06Z" style="fill:#263238"></path><path d="M295.94,387.88c-.08,0-.42-1-1.25-2.49a19.14,19.14,0,0,0-9.89-8.59c-1.61-.62-2.66-.81-2.65-.9a2.3,2.3,0,0,1,.76.07,12.74,12.74,0,0,1,2,.5A17.48,17.48,0,0,1,295,385.23a12.2,12.2,0,0,1,.78,1.91A2.38,2.38,0,0,1,295.94,387.88Z" style="fill:#263238"></path><g style="opacity:0.30000000000000004"><path d="M203.22,373.09c6.21,34.28,17,69.65,32.25,101h7c2.86-4,1.91-9.48.12-14s-4.32-9-4.29-13.89c0-3,1-5.93,1.39-8.92,1.43-11.55-6.5-22.11-8.34-33.6-.66-4.15-.28-8.95,2.87-11.74,2.76-2.45,6.8-2.64,10.49-2.55,9.64.23,19.43,1.44,28.84-.68s18.66-8.56,20.61-18Z"></path></g><path d="M294.53,265.5,325,257.27S318.48,237.93,313.4,224c-4.49-12.32-12-17.45-15.94-20.24a12,12,0,0,0-5.35-2.12c-7.22-1-26.94-3.55-36.73-4.37-12.11-1-37.39,5.65-37.39,5.65s-22.17,12.3-29.65,17.27a10.39,10.39,0,0,0-4,5c-1.38,3.72-3.14,10.11-5.24,18.37-1.35,5.26-5.78,22.65-5.78,22.65l26-.8c5.24,15.91,10.1,30.2,10.1,30.2l-4.71,29.26s35.54,14.21,44.62,13.2,50.23-16.9,50.23-16.9-4.71-46.42-4.71-47.76C294.85,272.89,294.71,269.52,294.53,265.5Z" style="fill:#A3E2B6"></path><g style="opacity:0.30000000000000004"><path d="M264.55,234.55a9.4,9.4,0,0,0-8.32-3.12,18.8,18.8,0,0,0-8.47,3.49c-7.89,5.35-13.48,13.42-18.43,21.55a260,260,0,0,0-21.66,44.74l.2,4c6.47-.81,10.68-6.27,13.49-12.15s4-12.39,6.49-18.42A47.51,47.51,0,0,1,253.43,249a12.25,12.25,0,0,0,10.51-3.78C266.46,242.31,266.94,237.59,264.55,234.55Z"></path></g><path d="M294.83,270.55c-.15,0-1-8.44-1.93-18.86s-1.55-18.89-1.41-18.91,1,8.43,1.93,18.86S295,270.53,294.83,270.55Z" style="fill:#263238"></path><path d="M192.4,232.78a7.52,7.52,0,0,1,.38,1.31c.23,1,.51,2.17.85,3.62.7,3,1.64,7.28,2.63,12s1.88,8.92,2.48,12c.28,1.46.51,2.69.7,3.65a6.37,6.37,0,0,1,.18,1.35,7.16,7.16,0,0,1-.38-1.31c-.23-.95-.51-2.16-.86-3.61-.7-3.06-1.63-7.29-2.63-12s-1.87-8.92-2.48-12c-.27-1.46-.51-2.68-.69-3.64A6.42,6.42,0,0,1,192.4,232.78Z" style="fill:#263238"></path><path d="M290.18,202c.15,0-.73,3.42-1.33,7.67s-.73,7.75-.89,7.75a8.66,8.66,0,0,1-.1-2.3,48.74,48.74,0,0,1,.47-5.52,47.63,47.63,0,0,1,1.11-5.43A8.42,8.42,0,0,1,290.18,202Z" style="fill:#263238"></path><path d="M294.53,265.5c-.27.08,7.75,27.64,7.75,27.64l-23.57-1.92L267.46,305l40.17,14.8s24.9-11.1,24.9-12.11-9-50-9-50Z" style="fill:#886962"></path><path d="M277.19,268.69a1.68,1.68,0,0,0,1.21-.57,2,2,0,0,0,.51-1.51,1.94,1.94,0,0,0-1.37-1.59,2.63,2.63,0,0,0-2.62.48,3.84,3.84,0,0,0-1,1.25,4.25,4.25,0,0,0-.3.8c-.07.28-.16.59,0,.77a.66.66,0,0,0,.69.17,1.29,1.29,0,0,0,.7-.48,2,2,0,0,0,.28-1.79,2.6,2.6,0,0,0-3.53-1.17,4.71,4.71,0,0,0-1.79,1.42,2,2,0,0,0-.45,1,.65.65,0,0,0,.49.73,1.17,1.17,0,0,0,1-.34,1.61,1.61,0,0,0,.46-1,2.42,2.42,0,0,0-1.05-2.12,3.08,3.08,0,0,0-2.51-.32,2.92,2.92,0,0,0-2,1.61,1.48,1.48,0,0,0-.06,1.23,1,1,0,0,0,1,.56,1.36,1.36,0,0,0,1.22-1.87,2.14,2.14,0,0,0-2.21-1.39,4.28,4.28,0,0,0-2.68,1.26,6.72,6.72,0,0,0-1.05,1.16,1.48,1.48,0,0,0-.29,1.3.77.77,0,0,0,1.07.27,1.2,1.2,0,0,0,.61-1.16,3.22,3.22,0,0,0-1.57-2.56,3.4,3.4,0,0,0-4.36.68,1.87,1.87,0,0,0-.46,1.41c.1,1,1.76,1.21,2.3.37a2,2,0,0,0-.69-2.71,3.57,3.57,0,0,0-3.14-.17,8.13,8.13,0,0,0-1.5.76,3.65,3.65,0,0,0-1.18,1.05,1.3,1.3,0,0,0-.1,1.35.74.74,0,0,0,1.06.35,1.17,1.17,0,0,0,.54-1.18,2.63,2.63,0,0,0-.61-1.36,3.06,3.06,0,0,0-2.67-1.1,3,3,0,0,0-2.36,1.57,1.54,1.54,0,0,0-.08,1.3.92.92,0,0,0,1,.49,1.27,1.27,0,0,0,1-.72,1.61,1.61,0,0,0,0-1.29,2.71,2.71,0,0,0-2.12-1.54,5.63,5.63,0,0,0-2.74.07,2.37,2.37,0,0,0-1.76,1.68,1.76,1.76,0,0,0,1,2,1.45,1.45,0,0,0,1.69-1.13,2.39,2.39,0,0,0-.62-2.13,3.75,3.75,0,0,0-1.92-1.15,4.43,4.43,0,0,0-4,1,3.23,3.23,0,0,0-1,1.65,1.58,1.58,0,0,0,.51,1.59,1.08,1.08,0,0,0,1.45-.05,1.53,1.53,0,0,0,.49-1.38A3,3,0,0,0,240,264a3.22,3.22,0,0,0-2.18-.33,3.46,3.46,0,0,0-1.49.72,4.25,4.25,0,0,0-.88,1.07,1.69,1.69,0,0,1,.14-.33,3.2,3.2,0,0,1,.67-.82,3.46,3.46,0,0,1,1.52-.8,3.42,3.42,0,0,1,2.32.3,3.23,3.23,0,0,1,1.77,2.32,1.84,1.84,0,0,1-.56,1.63,1.38,1.38,0,0,1-1.83.07,1.9,1.9,0,0,1-.64-1.89,3.54,3.54,0,0,1,1-1.84,4.74,4.74,0,0,1,4.32-1.11,4.11,4.11,0,0,1,2.14,1.26,2.8,2.8,0,0,1,.72,2.5,2.24,2.24,0,0,1-.79,1.17,1.63,1.63,0,0,1-1.44.27,1.78,1.78,0,0,1-1.08-1,2.46,2.46,0,0,1-.21-1.47,2.81,2.81,0,0,1,2.07-2,6.13,6.13,0,0,1,3-.11,3.26,3.26,0,0,1,2.48,1.83,2.15,2.15,0,0,1,0,1.67,1.78,1.78,0,0,1-1.38,1,1.44,1.44,0,0,1-1.57-.76,2.05,2.05,0,0,1,.08-1.75,3.56,3.56,0,0,1,5.9-.58,3,3,0,0,1,.73,1.64,1.7,1.7,0,0,1-.8,1.69,1.23,1.23,0,0,1-1,.13,1.37,1.37,0,0,1-.77-.68,1.85,1.85,0,0,1,.11-1.9,4.12,4.12,0,0,1,1.35-1.22,8.29,8.29,0,0,1,1.6-.81,4.09,4.09,0,0,1,3.62.22,2.51,2.51,0,0,1,.84,3.49,1.91,1.91,0,0,1-1.83.74,1.82,1.82,0,0,1-1-.42,1.59,1.59,0,0,1-.5-.92,2.39,2.39,0,0,1,.57-1.84,3.94,3.94,0,0,1,5.08-.8,3.76,3.76,0,0,1,1.82,3,1.77,1.77,0,0,1-.91,1.64,1.53,1.53,0,0,1-1,.12,1.15,1.15,0,0,1-.8-.65,2,2,0,0,1,.33-1.81,6.91,6.91,0,0,1,1.14-1.26,4.74,4.74,0,0,1,3-1.38,3,3,0,0,1,1.66.4,2.51,2.51,0,0,1,1.05,1.35,2,2,0,0,1-.19,1.69,1.91,1.91,0,0,1-1.48.82,1.52,1.52,0,0,1-1.46-.84,1.93,1.93,0,0,1,.06-1.63,3.39,3.39,0,0,1,2.34-1.87,3.55,3.55,0,0,1,2.88.39,2.85,2.85,0,0,1,1.23,2.53,1.79,1.79,0,0,1-2,1.76,1.08,1.08,0,0,1-.82-1.18,2.48,2.48,0,0,1,.55-1.23,5.28,5.28,0,0,1,1.95-1.51,3,3,0,0,1,4,1.41,2.27,2.27,0,0,1-.35,2.1,1.6,1.6,0,0,1-.89.59.93.93,0,0,1-1-.32,1.3,1.3,0,0,1,0-1,4.47,4.47,0,0,1,.34-.84,4.17,4.17,0,0,1,1.07-1.34,2.88,2.88,0,0,1,2.85-.47,2.12,2.12,0,0,1,1.46,1.78,2.15,2.15,0,0,1-.59,1.6A1.38,1.38,0,0,1,277.19,268.69Z" style="fill:#263238"></path><polygon points="235.26 265.81 221.5 317.81 265.25 319.19 279.01 267.83 235.26 265.81" style="fill:#455a64"></polygon><polygon points="235.26 265.81 233.51 265.97 219.63 314 221.74 316.9 235.26 265.81" style="fill:#e0e0e0"></polygon><path d="M264.22,279.06h14.21a3.37,3.37,0,0,1,3.15,2.05,9.71,9.71,0,0,1,.82,4.1,5.17,5.17,0,0,1,1,2.87,70.79,70.79,0,0,1,0,7.79c-.13.41-1.64.82-1.64.82s1,2.19.14,3.82a4,4,0,0,1-2.05,2.05s-1.91,4.38-3.83,4.92-3.68,0-4.64,0-16.4-7.92-16.4-7.92v-1.78s-5.46.55-5.6-2.46,3.55-2.82,3.55-2.82h8.34s-9.16.36-10-1-1.92-4.65.88-5.19,15.44-.55,15.44-.55l6.9,1.14h1.09l-.85-3s-7.24,0-8.32-.15-3.12-.41-3.12-2.32S264.22,279.06,264.22,279.06Z" style="fill:#886962"></path><path d="M272.21,293.34a12.3,12.3,0,0,1-2.65.18c-1.64,0-3.91,0-6.41-.18s-4.76-.42-6.38-.65a12.12,12.12,0,0,1-2.61-.52,14.22,14.22,0,0,1,2.65.13c1.63.14,3.88.33,6.37.49s4.75.26,6.38.34A13.33,13.33,0,0,1,272.21,293.34Z" style="fill:#654742"></path><path d="M270.92,301a8.89,8.89,0,0,1-2.37-.07c-1.45-.13-3.45-.36-5.65-.72s-4.17-.76-5.59-1.11a10.15,10.15,0,0,1-2.27-.67,10.31,10.31,0,0,1,2.35.29l5.6.95,5.61.88A11.42,11.42,0,0,1,270.92,301Z" style="fill:#654742"></path><path d="M282.82,290.26s.2.06.5.31a3.3,3.3,0,0,1,.92,1.35,3.39,3.39,0,0,1-.05,2.52,3.64,3.64,0,0,1-2.45,2.07l.16-.39a4.49,4.49,0,0,1-2.06,6.38l.16-.18a8.75,8.75,0,0,1-3.07,4.67,7.73,7.73,0,0,1-1.38.85,1.47,1.47,0,0,1-.55.19c0-.07.71-.4,1.72-1.29a9,9,0,0,0,2.78-4.54l0-.13.12-.05a4,4,0,0,0,1.81-5.62l-.2-.31.36-.09a3.19,3.19,0,0,0,2.16-1.74,3.11,3.11,0,0,0,.16-2.24A4.87,4.87,0,0,0,282.82,290.26Z" style="fill:#654742"></path><path d="M249.33,222.66,258.1,205l-2.72-7.74s13.16-6.83,8.66-20.77c-2.17-6.73-7.77-20.23-13-32.39A27.28,27.28,0,0,0,217.27,129l-1.34.45c-14.16,5.7-17.23,20.91-11.14,34.91l17.81,52Z" style="fill:#886962"></path><path d="M255.39,197.22a34.09,34.09,0,0,1-19.83.94s7.64,8.55,21.08,2.64Z" style="fill:#654742"></path><path d="M251.53,155.06a2.09,2.09,0,0,1-1.24,2.64,2,2,0,0,1-2.65-1.1,2.09,2.09,0,0,1,1.24-2.64A2,2,0,0,1,251.53,155.06Z" style="fill:#263238"></path><path d="M250.32,151.06c-.16.34-2-.26-4.16.46s-3.34,2.32-3.66,2.13c-.15-.07-.06-.63.46-1.35a5.69,5.69,0,0,1,2.81-2,5.56,5.56,0,0,1,3.43,0C250,150.51,250.4,150.91,250.32,151.06Z" style="fill:#263238"></path><path d="M231.9,161.57a2.1,2.1,0,0,1-1.24,2.65,2,2,0,0,1-2.65-1.1,2.1,2.1,0,0,1,1.24-2.65A2,2,0,0,1,231.9,161.57Z" style="fill:#263238"></path><path d="M229.6,157.38c-.13.36-2.06,0-4.1.91s-3.06,2.66-3.4,2.52c-.16-.06-.13-.62.31-1.4a5.67,5.67,0,0,1,2.58-2.32,5.48,5.48,0,0,1,3.4-.41C229.24,156.87,229.66,157.22,229.6,157.38Z" style="fill:#263238"></path><path d="M242.59,172.53a14.41,14.41,0,0,1,3.25-1.79c.53-.24,1-.52,1-.92s-.43-.95-.9-1.5l-3-3.6c-4.22-5.16-7.48-9.47-7.27-9.64s3.8,3.88,8,9l2.94,3.65a3.34,3.34,0,0,1,1,2.05,1.47,1.47,0,0,1-.63,1.1,3.91,3.91,0,0,1-.88.43A14.59,14.59,0,0,1,242.59,172.53Z" style="fill:#263238"></path><path d="M226.7,150c0,.65-2.24,1.09-4.64,2.23s-4.2,2.51-4.71,2.1c-.23-.2-.06-.86.57-1.7a9,9,0,0,1,7.12-3.3C226.08,149.34,226.7,149.64,226.7,150Z" style="fill:#263238"></path><path d="M247.78,145.32c-.21.62-1.85.61-3.63,1.18s-3.15,1.42-3.67,1c-.23-.2-.16-.76.34-1.44a5.54,5.54,0,0,1,5.88-1.78C247.49,144.6,247.87,145,247.78,145.32Z" style="fill:#263238"></path><path d="M209.38,174.21c-.27,0-10.49.38-7,9.77s12.2,4,12.12,3.67S209.38,174.21,209.38,174.21Z" style="fill:#886962"></path><path d="M210.31,185.16c-.05,0-.12.18-.35.41a1.75,1.75,0,0,1-1.21.48c-1.13,0-2.55-1.26-3.22-2.94a5.66,5.66,0,0,1-.42-2.51,2,2,0,0,1,.77-1.71A.89.89,0,0,1,207,179c.22.21.23.42.29.42s.14-.23-.08-.59a1.13,1.13,0,0,0-.59-.45,1.34,1.34,0,0,0-1,.09,2.46,2.46,0,0,0-1.17,2.1,5.89,5.89,0,0,0,.41,2.82c.76,1.87,2.39,3.29,3.89,3.17a1.88,1.88,0,0,0,1.41-.8C210.38,185.4,210.35,185.17,210.31,185.16Z" style="fill:#654742"></path><path d="M236.8,176.12c.34-.14,1.13,2.18,3.66,3.15s4.92-.1,5,.21c.08.14-.4.64-1.43,1a6.05,6.05,0,0,1-4.16-.05,5.3,5.3,0,0,1-2.92-2.69C236.57,176.82,236.64,176.16,236.8,176.12Z" style="fill:#263238"></path><path d="M254.46,123.54a5.8,5.8,0,0,0-4.52-3.17,8.71,8.71,0,0,0-.7-1.51,7.41,7.41,0,0,0-8.74-3.24,7.22,7.22,0,0,0-12.75.63,8.62,8.62,0,0,0-9.16,1.76,2.18,2.18,0,0,0-.67,1,1,1,0,0,0,.16.78,5.43,5.43,0,0,0-4.92-1,5.23,5.23,0,0,0-1.58.8,6.13,6.13,0,0,0-3.22,3.29,8.7,8.7,0,0,0-8.52,7.79,8.28,8.28,0,0,0-5.09,7.7,6,6,0,0,0-1.23,10.39s-6.14,3.74-2.42,9.09c1.9,2.74,5.8.84,5.8.84l11.54,17.47c-.05.12,2,1.93,3,1.06s1.23-2.26,1.54-3.54a14.27,14.27,0,0,0,.73-4.42,3.48,3.48,0,0,0-2.56-3.29,5.2,5.2,0,0,0,1.69-4.92,15.42,15.42,0,0,0-2-5.05l-3.87-7.07a10,10,0,0,0,6.38-8.14,5.72,5.72,0,0,0,7.23-4.57,7.47,7.47,0,0,0,10.08,1.48c.28,2.09,4.42,2.73,6.53,2.6s4.07-2.31,4.07-2.31a12,12,0,0,0,4.3.09h0l.21-.05c2.77-.64,4.57-4,5.08-6.75a5.14,5.14,0,0,0,2-.91A5.75,5.75,0,0,0,254.46,123.54Z" style="fill:#263238"></path><path d="M176.47,266.1s-6.09,22-7.43,27.42-1.33,17.89,1.69,21.59,13.12,6.05,13.12,6.05,19.77-9.65,26.49-21.42,25.13-43.8,25.13-43.8l-5.83-16L199,269.2l.31-3.8Z" style="fill:#886962"></path><path d="M240.46,189.52h0a2.15,2.15,0,0,1,2.89.95L261,225.58l-4.52,2-17-35.23A2.15,2.15,0,0,1,240.46,189.52Z" style="fill:#455a64"></path><path d="M228.66,241l16.48-17h15.8l10.12,13.36s-4.79.89-6.51-1.68l-2.23-3.18s2.23,4.89,1,7.3c0,0-2.37,5.58-2.75,6.18-.72,1.12-1.27,1.84-3.33,1.5s-5.26-2-4.91-3.22a2,2,0,0,1,1.54-1.37l-4.81-.69s-4.84,8.77-7.76,10.83a22.92,22.92,0,0,1-5.86,2.95Z" style="fill:#886962"></path><path d="M199.62,268.69c0,.08-1.33.72-3.43,1.94a48.56,48.56,0,0,0-7.65,5.56,47.63,47.63,0,0,0-6.39,7c-1.46,1.94-2.25,3.23-2.32,3.18a4.7,4.7,0,0,1,.47-.95c.33-.6.85-1.44,1.55-2.45A41.16,41.16,0,0,1,196,270.31c1.08-.58,2-1,2.61-1.26A4.62,4.62,0,0,1,199.62,268.69Z" style="fill:#654742"></path><path d="M248.77,228.9a10.26,10.26,0,0,1,2.31-.39c1.44-.18,3.43-.38,5.62-.58a6.67,6.67,0,0,1,1.67,0,3.42,3.42,0,0,1,1.48.59,5.21,5.21,0,0,1,1.67,2,6.4,6.4,0,0,1,.74,2.24c-.08,0-.38-.82-1.06-2.07a5.26,5.26,0,0,0-1.61-1.79,3.36,3.36,0,0,0-1.29-.49,6.74,6.74,0,0,0-1.55,0c-2.2.19-4.19.34-5.64.42A11,11,0,0,1,248.77,228.9Z" style="fill:#654742"></path><path d="M261.35,245.08c-.08,0,.07-1.2,0-3.11a20.53,20.53,0,0,0-.45-3.32c-.27-1.2-.66-2.64-1.86-3.34a7,7,0,0,0-1.95-.69l-1.94-.44a24.38,24.38,0,0,0-3.32-.51,25.47,25.47,0,0,0-3.09.08,2,2,0,0,1,.81-.26,10.47,10.47,0,0,1,2.3-.19,19.91,19.91,0,0,1,3.39.41c.63.12,1.29.26,2,.42a7,7,0,0,1,2.09.73,3.66,3.66,0,0,1,1.48,1.72,8.73,8.73,0,0,1,.58,2,17.92,17.92,0,0,1,.36,3.41,15,15,0,0,1-.14,2.3A2.61,2.61,0,0,1,261.35,245.08Z" style="fill:#654742"></path><path d="M255.63,239.37a10.8,10.8,0,0,1,.25,3.17v.31l-.31-.06a3.07,3.07,0,0,0-.53,0,3.14,3.14,0,0,0-2.18,1c-.45.47-.59.87-.67.84s0-.48.39-1.07a3.12,3.12,0,0,1,2.46-1.25,3.3,3.3,0,0,1,.64.07l-.31.25A10.88,10.88,0,0,1,255.63,239.37Z" style="fill:#654742"></path><path d="M255.65,239.9a18,18,0,0,1-3.2-.15,18.92,18.92,0,0,1-3.21-.19,7,7,0,0,1,3.23-.33A7.08,7.08,0,0,1,255.65,239.9Z" style="fill:#654742"></path><path d="M249.5,239.08a6.45,6.45,0,0,1-.71,3.3,6.55,6.55,0,0,1-1.86,2.83c-.12-.09.68-1.34,1.38-3S249.35,239.05,249.5,239.08Z" style="fill:#654742"></path><path d="M312.66,431.31l-1.42,45.27,56.31,2.06c-.13-5.39-28.87-17.26-28.87-17.26l2.11-29Z" style="fill:#A3E2B6"></path><g style="opacity:0.6000000000000001"><path d="M321.36,458.3a2.31,2.31,0,0,0-1.69,2.57,2.21,2.21,0,0,0,2.53,1.69,2.41,2.41,0,0,0,1.77-2.72,2.29,2.29,0,0,0-2.82-1.47" style="fill:#fff"></path></g><g style="opacity:0.6000000000000001"><path d="M311.24,476.58l.32-4.56,53.87,3.68s2.47,1.19,2.12,2.94Z" style="fill:#fff"></path></g><path d="M339.61,461.13c0,.27-1.4.35-2.79,1.18s-2.15,2-2.4,1.85.22-1.69,1.92-2.67S339.67,460.88,339.61,461.13Z" style="fill:#263238"></path><path d="M345.42,463.79c.06.27-1.15.69-2.13,1.82s-1.29,2.35-1.56,2.33-.39-1.59.85-3S345.43,463.53,345.42,463.79Z" style="fill:#263238"></path><path d="M348.52,471c-.25,0-.59-1.34.18-2.82s2.06-2,2.17-1.8-.72,1-1.32,2.24S348.79,471,348.52,471Z" style="fill:#263238"></path><path d="M339.35,454.47c-.12.25-1.37-.18-2.93-.13s-2.79.5-2.92.26,1.07-1.18,2.9-1.21S339.5,454.26,339.35,454.47Z" style="fill:#263238"></path><path d="M338.26,447.74c0,.12-1.1.25-2.82-.12a12.73,12.73,0,0,1-2.92-1,13,13,0,0,1-1.59-.92,3.47,3.47,0,0,1-.83-.69,1.21,1.21,0,0,1-.07-1.47,1.51,1.51,0,0,1,1.23-.58,3.53,3.53,0,0,1,1.05.18,9.14,9.14,0,0,1,1.73.67,9.8,9.8,0,0,1,2.54,1.8c1.26,1.26,1.67,2.3,1.58,2.35s-.74-.8-2-1.85a11.69,11.69,0,0,0-2.46-1.51,11.15,11.15,0,0,0-1.6-.55c-.6-.18-1.1-.21-1.27,0-.05.1-.06.14.06.32a2.69,2.69,0,0,0,.6.51c.49.34,1,.64,1.46.91a15.57,15.57,0,0,0,2.69,1.14A19.64,19.64,0,0,1,338.26,447.74Z" style="fill:#263238"></path><path d="M337.88,448.12c-.1,0-.6-1-.64-2.75a9.21,9.21,0,0,1,1.28-4.76,2.35,2.35,0,0,1,1.85-1.36,1.34,1.34,0,0,1,1.15.83,3.78,3.78,0,0,1,.25,1.05,6.31,6.31,0,0,1-.07,1.9,6.53,6.53,0,0,1-1.31,2.87c-1.15,1.42-2.31,1.7-2.33,1.61s.89-.64,1.78-2a6.41,6.41,0,0,0,1-2.62,5.56,5.56,0,0,0,0-1.63c-.07-.6-.27-1.09-.5-1s-.77.42-1,.89a8.4,8.4,0,0,0-.75,1.5,10.25,10.25,0,0,0-.65,2.8C337.78,447.05,338,448.09,337.88,448.12Z" style="fill:#263238"></path><path d="M228.19,431.64l14.26,43-53.4,18c-1.41-5.2,22.76-24.76,22.76-24.76l-10.26-27.17Z" style="fill:#A3E2B6"></path><g style="opacity:0.6000000000000001"><path d="M227.54,460a2.31,2.31,0,0,1,2.35,2,2.22,2.22,0,0,1-1.94,2.35,2.44,2.44,0,0,1-2.48-2.11c0-1.13,1.18-2.41,2.29-2.22" style="fill:#fff"></path></g><g style="opacity:0.6000000000000001"><path d="M242.45,474.63l-1.61-4.28-50.59,18.87s-2,1.84-1.2,3.42Z" style="fill:#fff"></path></g><path d="M210.86,467.9c.09.25,1.44-.07,3,.34s2.62,1.27,2.83,1.08-.7-1.55-2.6-2S210.72,467.68,210.86,467.9Z" style="fill:#263238"></path><path d="M206,472.1c0,.27,1.3.34,2.56,1.14s1.91,1.89,2.16,1.79-.07-1.63-1.66-2.6S206,471.85,206,472.1Z" style="fill:#263238"></path><path d="M205.12,479.88c.25,0,.18-1.45-1-2.65s-2.57-1.36-2.6-1.11,1,.77,1.9,1.77S204.85,479.94,205.12,479.88Z" style="fill:#263238"></path><path d="M209.2,461.44c.19.21,1.27-.56,2.77-1s2.82-.32,2.88-.58-1.36-.83-3.13-.34S209,461.28,209.2,461.44Z" style="fill:#263238"></path><path d="M208.34,454.68c0,.11,1.12-.08,2.67-.92a12.35,12.35,0,0,0,2.5-1.8,14.72,14.72,0,0,0,1.27-1.33,3.42,3.42,0,0,0,.59-.9,1.19,1.19,0,0,0-.35-1.43,1.5,1.5,0,0,0-1.34-.21,3.74,3.74,0,0,0-1,.48,10.58,10.58,0,0,0-1.47,1.13,9.92,9.92,0,0,0-1.92,2.45,4.78,4.78,0,0,0-.84,2.7c.15,0,.48-1,1.42-2.35a11.57,11.57,0,0,1,1.93-2.15,10.6,10.6,0,0,1,1.38-1c.51-.34,1-.5,1.22-.3s.11.11,0,.32a2.89,2.89,0,0,1-.44.66,13,13,0,0,1-1.14,1.28,15.2,15.2,0,0,1-2.25,1.87C209.27,454.13,208.28,454.54,208.34,454.68Z" style="fill:#263238"></path><path d="M208.8,454.94c.11,0,.31-1.1-.16-2.82a9.25,9.25,0,0,0-2.58-4.2,2.35,2.35,0,0,0-2.17-.77,1.3,1.3,0,0,0-.86,1.12,3.68,3.68,0,0,0,.05,1.07,6.54,6.54,0,0,0,2.68,4.18c1.52,1,2.71,1,2.7.88a22.34,22.34,0,0,1-2.28-1.42,6.5,6.5,0,0,1-1.7-2.22,6.1,6.1,0,0,1-.47-1.57c-.11-.59,0-1.12.18-1.14a1.63,1.63,0,0,1,1.23.57,9.46,9.46,0,0,1,1.16,1.22,10,10,0,0,1,1.41,2.5C208.6,453.88,208.65,455,208.8,454.94Z" style="fill:#263238"></path><path d="M215.33,329.51s-20.92-18.55-30.1-18.39-39.29-1.85-26.66,39.87c12.73,42.07,35.53,106.4,36.15,104.09L234,437.84,218,378s53.47.6,63.8-.75,29.65-15,29.65-15l-3.08,75.61,41-2.28s5.76-90.83,7.42-109.49c1.44-16.25-16.82-34.49-35.45-30.38-12.16,2.69-55.65,33.39-55.65,33.39Z" style="fill:#263238"></path><path d="M312.86,322.09a10.67,10.67,0,0,1,0,2c-.07,1.4-.17,3.2-.28,5.38-.21,4.55-.36,10.83-.47,17.78s-.24,13.24-.48,17.79c-.11,2.28-.25,4.12-.37,5.39a10.11,10.11,0,0,1-.26,2,12.52,12.52,0,0,1,0-2c0-1.4.08-3.21.14-5.38.08-4.68.18-10.91.29-17.8s.33-13.24.66-17.79c.17-2.27.34-4.11.5-5.38A12.33,12.33,0,0,1,312.86,322.09Z" style="fill:#455a64"></path><path d="M311.2,357.49a8.74,8.74,0,0,1-1.81-2.18,24.47,24.47,0,0,1-4-12.95,8.26,8.26,0,0,1,.25-2.82c.23,0-.09,4.35,1.51,9.38S311.39,357.37,311.2,357.49Z" style="fill:#455a64"></path><path d="M255.41,372.81c-.07,0-.15-1-.47-2.88a37.35,37.35,0,0,0-2.15-7.62,38.68,38.68,0,0,0-5.93-10.06,37.16,37.16,0,0,0-11-9.11C227,338,219.17,332.94,213.71,329c-2.73-2-4.88-3.66-6.3-4.9-.72-.6-1.25-1.11-1.61-1.45a3.36,3.36,0,0,1-.52-.55s.82.63,2.3,1.79,3.65,2.8,6.41,4.71c5.52,3.84,13.37,8.81,22.25,14a37.21,37.21,0,0,1,11.12,9.31,37.87,37.87,0,0,1,5.88,10.29,33.7,33.7,0,0,1,2,7.75,18.9,18.9,0,0,1,.19,2.16A3.37,3.37,0,0,1,255.41,372.81Z" style="fill:#455a64"></path><path d="M269.88,328.51a9.73,9.73,0,0,1-.68,1.75c-.49,1.11-1.15,2.72-1.91,4.74A84.91,84.91,0,0,0,261.86,368c.07,2.15.18,3.89.29,5.09a9.21,9.21,0,0,1,.08,1.88,10.38,10.38,0,0,1-.35-1.85c-.19-1.19-.37-2.94-.5-5.1a76.19,76.19,0,0,1,5.46-33.15c.82-2,1.55-3.6,2.12-4.67A9.72,9.72,0,0,1,269.88,328.51Z" style="fill:#455a64"></path><path d="M191.22,323.07a4.31,4.31,0,0,1,.57.37l1.57,1.15c.35.25.72.53,1.13.84s.8.71,1.25,1.11a30.67,30.67,0,0,1,2.91,2.85l1.59,1.77c.51.65,1,1.34,1.55,2l.82,1.09c.26.38.5.78.75,1.18.5.81,1,1.62,1.54,2.49a75.82,75.82,0,0,1,5.26,11.87c1.55,4.34,2.72,8.58,3.77,12.42l2.72,10.23c.8,2.91,1.44,5.26,1.93,6.87.22.78.39,1.4.53,1.87a5.32,5.32,0,0,1,.15.66,3.07,3.07,0,0,1-.25-.63c-.15-.47-.36-1.08-.61-1.84-.54-1.6-1.24-3.94-2.08-6.84l-2.82-10.2c-1.08-3.84-2.26-8.06-3.8-12.38a77.92,77.92,0,0,0-5.19-11.81c-.49-.87-1-1.68-1.51-2.48-.25-.4-.48-.8-.74-1.18l-.79-1.08c-.53-.71-1-1.41-1.52-2.05l-1.55-1.78a32.47,32.47,0,0,0-2.84-2.88c-.44-.41-.82-.81-1.22-1.14l-1.09-.86-1.52-1.22A3.26,3.26,0,0,1,191.22,323.07Z" style="fill:#455a64"></path><path d="M214.9,329.14c7.46,4.92,15.68,6.08,24.47,7.76,5.07,1,10.37,1.85,15.32.39,10.61-3.13,20.86-15.21,27.67-19.51L253.91,325Z" style="fill:#A3E2B6"></path></g><g id="freepik--speech-bubble--inject-192"><circle cx="116.7" cy="145.61" r="43.32" transform="translate(-47.83 57.58) rotate(-23.14)" style="fill:#fafafa"></circle><circle cx="116.67" cy="145.61" r="43.46" transform="translate(-51.5 226.44) rotate(-76.96)" style="fill:#fff"></circle><path d="M161.49,167.31s-.46.13-1.18.54A5.69,5.69,0,0,0,158,170.4a5.35,5.35,0,0,0-.53,2.32,4.81,4.81,0,0,0,.8,2.57,5.19,5.19,0,0,0,9.56-1.77,4.78,4.78,0,0,0-.18-2.69,5.5,5.5,0,0,0-1.32-2,5.79,5.79,0,0,0-3.08-1.55c-.82-.12-1.29,0-1.3-.08l.34-.07a2.37,2.37,0,0,1,.41,0,3.89,3.89,0,0,1,.57,0,5.8,5.8,0,0,1,4.69,3.56,5,5,0,0,1,.23,2.89,5.91,5.91,0,0,1-1.47,2.83,5.21,5.21,0,0,1-6.37,1.18,6,6,0,0,1-2.4-2.12,5,5,0,0,1-.81-2.77,5.57,5.57,0,0,1,.6-2.45,5.68,5.68,0,0,1,2.5-2.56,3.63,3.63,0,0,1,.52-.23,2.4,2.4,0,0,1,.4-.12C161.37,167.31,161.49,167.29,161.49,167.31Z" style="fill:#263238"></path><path d="M160.19,143.57s0-.24-.09-.7-.13-1.17-.22-2.06c0-.46-.1-1-.16-1.52s-.23-1.16-.35-1.81-.28-1.36-.43-2.11a9.59,9.59,0,0,0-.3-1.14c-.13-.39-.25-.79-.38-1.21a41.65,41.65,0,0,0-5.34-11.34,43.38,43.38,0,0,0-11.6-11.81l-1.94-1.32c-.68-.4-1.39-.76-2.1-1.15l-1.07-.59a8.63,8.63,0,0,0-1.1-.54l-2.3-1c-.39-.16-.78-.34-1.17-.49l-1.23-.38-2.48-.78c-.84-.24-1.72-.38-2.58-.57L124,102.8c-.22,0-.44-.1-.66-.13l-.68-.07a39.93,39.93,0,0,0-5.51-.39c-.94,0-1.88,0-2.83,0l-2.86.28c-.48.06-1,.08-1.45.16l-1.43.29c-1,.2-1.94.36-2.9.61a43.14,43.14,0,0,0-5.7,2l-1.42.59-.71.3-.68.37-2.73,1.48c-.9.54-1.75,1.16-2.63,1.74-.43.3-.89.56-1.3.9l-1.23,1a48.91,48.91,0,0,0-4.73,4.4l-2.09,2.53-.53.64c-.16.22-.31.45-.47.68l-.93,1.37-.93,1.38-.81,1.47L78,125.87l-.4.74c-.12.26-.22.52-.34.78-.44,1-.88,2.08-1.33,3.12s-.68,2.17-1,3.27a42.91,42.91,0,0,0,1.26,27.35l1.32,3.16c.54,1,1.08,2,1.61,3l.41.74.47.7.94,1.39.93,1.39,1.06,1.29L84,174.07l.52.64.59.58,2.31,2.33a49.11,49.11,0,0,0,5.11,3.95l1.32.9c.44.3.92.52,1.38.79.93.49,1.84,1,2.78,1.48l2.86,1.23.71.3c.24.09.49.16.73.24l1.47.46a45.46,45.46,0,0,0,5.86,1.43c1,.15,2,.22,2.93.34l1.46.15c.49,0,1,0,1.45,0l2.88,0c1,0,1.89-.17,2.82-.24a42,42,0,0,0,5.46-.89l.66-.13.65-.2,1.29-.39c.84-.27,1.7-.49,2.52-.8l2.4-1,1.18-.5,1.12-.59,2.21-1.19a7.83,7.83,0,0,0,1-.64l1-.68c.66-.46,1.34-.88,2-1.35l1.81-1.48A43.22,43.22,0,0,0,155,166c.3-.54.6-1.06.87-1.59l.69-1.6c.22-.52.44-1,.66-1.54.1-.25.22-.5.31-.75l.24-.76c.32-1,.62-2,.92-2.88s.4-1.82.6-2.66c.09-.43.17-.84.26-1.24a7.92,7.92,0,0,0,.19-1.17q.13-1.14.24-2.13c.06-.66.16-1.27.19-1.83s0-1.07,0-1.53c0-.9,0-1.6,0-2.07s0-.71,0-.71,0,.24,0,.71,0,1.17,0,2.07c0,.46,0,1,0,1.53s-.11,1.18-.17,1.84-.14,1.38-.22,2.14a6.17,6.17,0,0,1-.19,1.18c-.08.4-.16.81-.25,1.24-.19.84-.33,1.75-.59,2.68s-.58,1.88-.9,2.89c-.08.25-.15.51-.24.77s-.2.5-.3.75q-.33.76-.66,1.56c-.23.52-.45,1.06-.69,1.61s-.56,1.06-.86,1.6a43.45,43.45,0,0,1-10.48,12.94l-1.82,1.5c-.64.47-1.32.9-2,1.36l-1,.68a7.07,7.07,0,0,1-1.05.65l-2.21,1.2-1.13.61-1.19.5-2.42,1c-.82.32-1.69.54-2.54.82l-1.29.4-.65.19-.68.13a39.3,39.3,0,0,1-5.49.91c-.94.08-1.89.21-2.85.25h-2.9c-.48,0-1,0-1.46,0l-1.47-.15c-1-.12-2-.19-3-.34a44.75,44.75,0,0,1-5.92-1.44l-1.47-.46c-.25-.08-.5-.15-.74-.24l-.72-.3-2.89-1.23c-1-.46-1.86-1-2.8-1.5-.46-.27-1-.49-1.39-.79l-1.33-.91a47.64,47.64,0,0,1-5.16-4l-2.34-2.35L84.2,175l-.53-.64L82.6,173l-1.06-1.3-1-1.4-1-1.41-.47-.7-.41-.75-1.63-3c-.45-1.06-.89-2.12-1.34-3.19a43.31,43.31,0,0,1-1.26-27.6c.34-1.11.69-2.2,1-3.3l1.34-3.15c.11-.26.22-.53.34-.78l.41-.75.81-1.49.82-1.48.94-1.39.94-1.38c.16-.23.31-.47.48-.69l.53-.64,2.11-2.55a48.53,48.53,0,0,1,4.77-4.44l1.25-1c.41-.34.88-.61,1.31-.92.89-.58,1.75-1.2,2.65-1.75L97,106.45l.68-.37c.24-.11.48-.2.72-.3l1.42-.6a46.07,46.07,0,0,1,5.76-2c1-.24,1.95-.4,2.92-.6l1.45-.29c.48-.09,1-.11,1.45-.16l2.89-.28c1-.06,1.91,0,2.85,0a40.66,40.66,0,0,1,5.56.39l.68.08c.22,0,.44.09.67.13l1.32.28c.88.19,1.76.34,2.61.57l2.49.79,1.24.39,1.17.5,2.32,1a8.81,8.81,0,0,1,1.11.55l1.07.59c.71.4,1.43.77,2.11,1.17l1.95,1.33a43.51,43.51,0,0,1,11.63,11.92,41.48,41.48,0,0,1,5.3,11.43c.13.41.25.82.37,1.21a7.18,7.18,0,0,1,.29,1.15c.15.76.29,1.46.41,2.12s.27,1.25.34,1.81.1,1.07.14,1.53q.12,1.35.18,2.07C160.18,143.33,160.19,143.57,160.19,143.57Z" style="fill:#263238"></path><path d="M132.62,141.65A15.91,15.91,0,1,0,109.94,156v4h13.94s.08-2.25.11-4.26A15.9,15.9,0,0,0,132.62,141.65Z" style="fill:#A3E2B6"></path><path d="M118.84,160s0-.07,0-.2,0-.33.07-.57c.06-.51.15-1.25.29-2.2s.33-2.12.63-3.46a22.9,22.9,0,0,1,1.45-4.42,14.32,14.32,0,0,1,1.3-2.38,3,3,0,0,1,1.09-1,1.65,1.65,0,0,1,1.51,0,1.06,1.06,0,0,1,.5.63,1.08,1.08,0,0,1-.06.81,2.25,2.25,0,0,1-1.23,1.06,4.34,4.34,0,0,1-3.31-.23,4.42,4.42,0,0,1-2.24-2.65,3.38,3.38,0,0,1-.1-1.84,1.42,1.42,0,0,1,1.45-1.1,1,1,0,0,1,.81.56,1.45,1.45,0,0,1,.13,1,3.2,3.2,0,0,1-1.12,1.58,4.71,4.71,0,0,1-3.71,1.07,4.12,4.12,0,0,1-3.07-2.29,2.4,2.4,0,0,1-.11-1.93,1.16,1.16,0,0,1,1.67-.61,1.64,1.64,0,0,1,.68.7,2.66,2.66,0,0,1,.24.92,4.78,4.78,0,0,1-.24,1.81,4.72,4.72,0,0,1-2.24,2.67,4.81,4.81,0,0,1-3.29.45,2.57,2.57,0,0,1-1.44-.76,1.22,1.22,0,0,1-.08-1.53,1.05,1.05,0,0,1,.71-.35,1.53,1.53,0,0,1,.76.15,2.27,2.27,0,0,1,1,1.09c.4.86.72,1.7,1,2.5,1.27,3.21,2.17,5.85,2.78,7.68.3.91.52,1.63.67,2.11.07.24.13.42.17.55s0,.19,0,.19a1.52,1.52,0,0,1-.07-.18c0-.13-.11-.31-.19-.55-.16-.49-.4-1.19-.71-2.1-.62-1.82-1.54-4.45-2.83-7.65-.33-.79-.66-1.64-1.05-2.48a2.16,2.16,0,0,0-.91-1,1,1,0,0,0-1.19,1.49,2.38,2.38,0,0,0,1.34.69,4.64,4.64,0,0,0,3.17-.44,4.54,4.54,0,0,0,2.15-2.57,4.45,4.45,0,0,0,.23-1.74,1.74,1.74,0,0,0-.81-1.46,1.05,1.05,0,0,0-.83-.08,1,1,0,0,0-.58.6,2.19,2.19,0,0,0,.1,1.77,3.94,3.94,0,0,0,2.93,2.18,4.57,4.57,0,0,0,3.55-1A3,3,0,0,0,121,144a1.3,1.3,0,0,0-.11-.85.82.82,0,0,0-.66-.46,1.09,1.09,0,0,0-.79.25,1.32,1.32,0,0,0-.45.71,3.09,3.09,0,0,0,.09,1.73,4.23,4.23,0,0,0,2.14,2.55,4.18,4.18,0,0,0,3.17.23,2.11,2.11,0,0,0,1.14-1,.93.93,0,0,0-.37-1.23,1.49,1.49,0,0,0-1.36-.05,2.81,2.81,0,0,0-1,.93,15.11,15.11,0,0,0-1.3,2.34,24.3,24.3,0,0,0-1.46,4.4c-.31,1.33-.51,2.49-.67,3.44s-.25,1.68-.32,2.19l-.09.57Z" style="fill:#263238"></path><path d="M122.8,162.62h-12a.89.89,0,0,1-.9-.89h0a.9.9,0,0,1,.9-.9h12a.9.9,0,0,1,.9.9h0A.89.89,0,0,1,122.8,162.62Z" style="fill:#263238"></path><path d="M122.8,163.41h-12a.9.9,0,1,0,0,1.79h1.31l1.74,3.32a1.17,1.17,0,0,0,1,.62h4.27a1.16,1.16,0,0,0,1-.63l1.69-3.31h.89a.9.9,0,1,0,0-1.79Z" style="fill:#263238"></path><g style="opacity:0.2"><path d="M106.5,131.51a11.74,11.74,0,0,1,3.18-2.11,8.46,8.46,0,0,1,2.46-.72c.6-.06.94,0,1,.13.07.29-1.14.71-2.76,1.8a13.06,13.06,0,0,0-6,12.84c.22,1.94.67,3.14.4,3.27-.11.06-.38-.16-.72-.66a8.58,8.58,0,0,1-1-2.34,11.72,11.72,0,0,1-.44-3.79,12.49,12.49,0,0,1,1.12-4.6" style="fill:#fff"></path></g><g style="opacity:0.2"><path d="M116.93,129.49c-1,0-1.89-.28-2-.82,0-.26.14-.54.51-.76a3,3,0,0,1,1.5-.37,2.93,2.93,0,0,1,1.5.38c.37.23.55.51.5.77" style="fill:#fff"></path></g><path d="M120,168.79a6.44,6.44,0,0,1-.83-.25,6.41,6.41,0,0,0-2-.25,6.56,6.56,0,0,0-2,.37c-.5.17-.79.33-.8.3a2.09,2.09,0,0,1,.75-.43,5.83,5.83,0,0,1,4.14-.12A2.82,2.82,0,0,1,120,168.79Z" style="fill:#455a64"></path><path d="M121.94,165.25c0,.05-2.17.09-4.83.09s-4.84,0-4.84-.09,2.17-.1,4.84-.1S121.94,165.19,121.94,165.25Z" style="fill:#455a64"></path><path d="M121.19,166.66a5.8,5.8,0,0,1-1.18.12c-.73.05-1.74.09-2.85.11s-2.13,0-2.86,0a6.64,6.64,0,0,1-1.18-.09,7.2,7.2,0,0,1,1.18-.05l2.85,0,2.85,0A10.31,10.31,0,0,1,121.19,166.66Z" style="fill:#455a64"></path></g><g id="freepik--Screen--inject-192"><path d="M356.92,165.51l-1.36,0-4,0-15.39.06-56.3.08h-.2v-.19c0-23.48,0-51.79-.05-82.95v-.25h60.44l81.87,0h.24v.24c0,32.37-.05,60.72-.07,82.95v.17h-.17l-40.74-.08-10.9,0-2.81,0-1,0,1,0,2.81,0,10.9-.05,40.74-.08-.17.18c0-22.23,0-50.58-.07-82.95l.24.25H279.86l.25-.25c0,31.16,0,59.47-.06,82.95l-.19-.2,56.3.09,15.39,0,4,0Z"></path><polyline points="366.51 165.51 421.92 165.51 421.92 82.56 279.86 82.56 279.86 165.51 356.92 165.51" style="fill:#fff"></polyline><polygon points="422.42 166.01 366.51 166.01 366.51 165.01 421.42 165.01 421.42 83.06 280.36 83.06 280.36 165.01 356.92 165.01 356.92 166.01 279.36 166.01 279.36 82.06 422.42 82.06 422.42 166.01"></polygon><rect x="279.86" y="82.56" width="142.07" height="6.13" style="fill:#f5f5f5"></rect><path d="M422.42,89.19H279.36V82.06H422.42Zm-142.06-1H421.42V83.06H280.36Z"></path><path d="M284.18,85.74a.8.8,0,0,1-1.6,0,.8.8,0,0,1,1.6,0Z" style="fill:#263238"></path><path d="M283.38,87a1.3,1.3,0,1,1,1.3-1.29A1.3,1.3,0,0,1,283.38,87Zm0-1.59a.3.3,0,1,0,.3.3A.3.3,0,0,0,283.38,85.44Z"></path><path d="M287.14,85.74a.79.79,0,0,1-.8.79.79.79,0,0,1-.79-.79.79.79,0,0,1,.79-.8A.8.8,0,0,1,287.14,85.74Z" style="fill:#263238"></path><path d="M286.34,87a1.3,1.3,0,1,1,1.3-1.29A1.29,1.29,0,0,1,286.34,87Zm0-1.59a.3.3,0,1,0,.3.3A.29.29,0,0,0,286.34,85.44Z"></path><path d="M290.1,85.74a.79.79,0,0,1-.79.79.79.79,0,0,1-.8-.79.8.8,0,0,1,.8-.8A.79.79,0,0,1,290.1,85.74Z" style="fill:#263238"></path><path d="M289.31,87a1.3,1.3,0,1,1,1.29-1.29A1.3,1.3,0,0,1,289.31,87Zm0-1.59a.3.3,0,1,0,0,.59.3.3,0,0,0,0-.59Z"></path><path d="M351.09,95.76s-2.81.09-6.27.09-6.26,0-6.26-.09,2.81-.08,6.26-.08S351.09,95.72,351.09,95.76Z" style="fill:#263238"></path><path d="M344.82,96.35c-3.72,0-5.39,0-6.15-.1h0c-.6-.08-.6-.23-.6-.49s0-.4.6-.48h0c.76-.1,2.43-.1,6.15-.1s5.4,0,6.15.1h0c.6.08.6.22.6.48s0,.41-.6.49h0C350.22,96.35,348.55,96.35,344.82,96.35Z"></path><path d="M367.75,95.76s-2.81.09-6.27.09-6.26,0-6.26-.09,2.8-.08,6.26-.08S367.75,95.72,367.75,95.76Z" style="fill:#263238"></path><path d="M361.48,96.35c-3.72,0-5.39,0-6.15-.1h0c-.6-.08-.6-.23-.6-.49s0-.4.6-.48h0c.76-.1,2.43-.1,6.15-.1s5.4,0,6.15.1h0c.6.08.6.22.6.48s0,.41-.6.49h0C366.88,96.35,365.21,96.35,361.48,96.35Z"></path><path d="M384.41,95.76s-2.81.09-6.27.09-6.26,0-6.26-.09,2.8-.08,6.26-.08S384.41,95.72,384.41,95.76Z" style="fill:#263238"></path><path d="M378.14,96.35c-3.72,0-5.4,0-6.15-.1h0c-.6-.08-.6-.23-.6-.49s0-.4.6-.48h0c.75-.1,2.43-.1,6.15-.1s5.4,0,6.15.1h0c.59.08.59.22.59.48s0,.41-.59.49h0C383.54,96.35,381.87,96.35,378.14,96.35Z"></path><path d="M401.21,95.76s-2.8.09-6.26.09-6.26,0-6.26-.09,2.8-.08,6.26-.08S401.21,95.72,401.21,95.76Z" style="fill:#263238"></path><path d="M395,96.35c-3.72,0-5.4,0-6.15-.1h0c-.59-.08-.59-.23-.59-.49s0-.4.59-.48h0c.75-.1,2.43-.1,6.15-.1s5.4,0,6.15.1h0c.59.08.59.22.59.48s0,.41-.59.49h0C400.35,96.35,398.68,96.35,395,96.35Z"></path><path d="M409.39,139.29s-13.61.08-30.38.08-30.39,0-30.39-.08,13.6-.09,30.39-.09S409.39,139.24,409.39,139.29Z" style="fill:#263238"></path><path d="M379,139.87c-8.4,0-16,0-21.49,0l-6.52,0c-1.09,0-1.76,0-2.18,0h-.14v0c-.56,0-.56-.18-.56-.47s0-.43.56-.48v0h.13c.43,0,1.1,0,2.19-.05l6.52,0c5.5,0,13.09,0,21.49,0s16,0,21.48,0l6.51,0c1.1,0,1.77,0,2.19.05h.14v0c.56.05.56.18.56.48s0,.42-.56.47v0h-.14c-.42,0-1.1,0-2.19,0l-6.51,0C395,139.86,387.4,139.87,379,139.87Z"></path><path d="M409.06,148.53c0,.05-13.6.09-30.38.09s-30.39,0-30.39-.09,13.6-.08,30.39-.08S409.06,148.49,409.06,148.53Z" style="fill:#e0e0e0"></path><path d="M378.68,149.12c-8.39,0-16,0-21.49,0l-6.51,0c-1.09,0-1.77,0-2.19,0h-.14v0c-.56-.06-.56-.18-.56-.48s0-.42.56-.48h.14c.42,0,1.1,0,2.19,0l6.51,0,21.49,0,21.48,0,6.52,0c1.09,0,1.77,0,2.19,0H409c.55.06.55.19.55.48s0,.42-.55.48v0h-.13c-.42,0-1.1,0-2.19,0l-6.52,0C394.67,149.11,387.07,149.12,378.68,149.12Z"></path><path d="M409.06,151s-13.6.08-30.38.08-30.39,0-30.39-.08,13.6-.09,30.39-.09S409.06,150.93,409.06,151Z" style="fill:#e0e0e0"></path><path d="M378.68,151.56c-8.39,0-16,0-21.49,0l-6.51,0c-1.09,0-1.77,0-2.19,0h-.14v0c-.56,0-.56-.18-.56-.47s0-.43.56-.48v0h.14c.42,0,1.1,0,2.19-.05l6.51,0c5.5,0,13.1,0,21.49,0s16,0,21.48,0l6.52,0c1.09,0,1.77,0,2.19.05H409v0c.55.05.55.18.55.48s0,.42-.55.47v0h-.13c-.42,0-1.1,0-2.19,0l-6.52,0C394.67,151.55,387.07,151.56,378.68,151.56Z"></path><path d="M379.4,142.49s-6.89.09-15.39.09-15.39,0-15.39-.09,6.89-.08,15.39-.08S379.4,142.45,379.4,142.49Z" style="fill:#263238"></path><path d="M364,143.08c-4.25,0-8.1,0-10.89,0-2.3,0-3.55,0-4.22-.07h-.21v0c-.57-.07-.57-.21-.57-.47s0-.39.57-.46v0h.21c.67-.06,1.92-.06,4.22-.07,2.79,0,6.64,0,10.89,0s8.1,0,10.88,0c2.31,0,3.55,0,4.22.07h.21v0c.57.07.57.21.57.46s0,.39-.57.47v0h-.21c-.67.05-1.91.06-4.22.07C372.11,143.07,368.26,143.08,364,143.08Z"></path><path d="M415.81,97.75a2.9,2.9,0,0,0,.3,0,1.33,1.33,0,0,0,.72-.44,1.39,1.39,0,0,0,.29-.54,2.82,2.82,0,0,0,0-.73c0-.53.13-1.21-.35-1.71a1.36,1.36,0,0,0-.89-.44c-.36,0-.75,0-1.15,0h-8.39a1.32,1.32,0,0,0-1.17.72,1.48,1.48,0,0,0-.15.69V96a3.12,3.12,0,0,0,.05.7,1.21,1.21,0,0,0,.33.58,1.37,1.37,0,0,0,.55.34,2.39,2.39,0,0,0,.66.06h4.77l3.21,0,.88,0h.3s0,0-.08,0h-.22l-.88,0-3.21,0-4.77,0a2.4,2.4,0,0,1-.7-.06,1.46,1.46,0,0,1-.63-.38,1.56,1.56,0,0,1-.37-.65,2.32,2.32,0,0,1-.05-.38v-1.1a1.56,1.56,0,0,1,.16-.76,1.49,1.49,0,0,1,1.32-.81h9.55a1.47,1.47,0,0,1,1,.49,1.44,1.44,0,0,1,.36.92c0,.31,0,.6,0,.87a2.31,2.31,0,0,1-.06.75,1.32,1.32,0,0,1-.31.56,1.45,1.45,0,0,1-.76.44A1,1,0,0,1,415.81,97.75Z" style="fill:#263238"></path><path d="M406.52,98.33a2.23,2.23,0,0,1-.72-.09,1.91,1.91,0,0,1-.83-.5,2,2,0,0,1-.5-.87,2.14,2.14,0,0,1-.07-.49V95.26a2,2,0,0,1,2-2.07H416a2,2,0,0,1,1.33.66,2,2,0,0,1,.48,1.24v1a2.53,2.53,0,0,1-.08.76,1.76,1.76,0,0,1-.42.75,1.83,1.83,0,0,1-.94.56v0h-.15a2.26,2.26,0,0,1-.33,0l-2,0-7.17,0Zm.06-1.15,9.23.07.19,0a.88.88,0,0,0,.45-.29.77.77,0,0,0,.18-.33,1.34,1.34,0,0,0,0-.46V96c0-.11,0-.25,0-.4,0-.45,0-.75-.21-1a.83.83,0,0,0-.57-.29c-.2,0-.43,0-.68,0h-8.83a.82.82,0,0,0-.71.44,1,1,0,0,0-.1.46v.92a1.51,1.51,0,0,0,0,.39.81.81,0,0,0,.21.37.75.75,0,0,0,.34.21A1.43,1.43,0,0,0,406.58,97.18Z"></path><rect x="293.76" y="111.99" width="40.58" height="39.26" style="fill:#455a64"></rect><path d="M334.84,151.75H293.26V111.49h41.58Zm-40.58-1h39.58V112.49H294.26Z"></path><g style="opacity:0.30000000000000004"><polygon points="296.9 147.89 308.13 127.69 317.31 140.6 322.89 133.74 331.19 147.89 296.9 147.89"></polygon><path d="M332.07,148.39h-36l12-21.64,9.26,13,5.62-6.9Zm-34.32-1h32.57l-7.5-12.77-5.54,6.8-9.1-12.8Z"></path></g><g style="opacity:0.30000000000000004"><path d="M321.22,123.76a2.92,2.92,0,1,1-2.92-2.92A2.92,2.92,0,0,1,321.22,123.76Z"></path><path d="M318.3,127.18a3.42,3.42,0,1,1,3.42-3.42A3.43,3.43,0,0,1,318.3,127.18Zm0-5.84a2.42,2.42,0,1,0,2.42,2.42A2.42,2.42,0,0,0,318.3,121.34Z"></path></g><g style="opacity:0.30000000000000004"><path d="M331.19,115.07l-34.28,0a2,2,0,0,0-.2.19h0v8.81c0,2.88,0,5.71,0,8.46,0,5.5,0,10.7,0,15.48v.17h.17l24.9-.09,7,0,1.82,0h0l-1.85,0-7,0-24.62-.09c0-4.74,0-9.88,0-15.31v-8.46c0-1.44,0-2.9,0-4.37v-4.26l33.93,0c0,9.73.06,17.83.08,23.54,0,2.85,0,5.11,0,6.66,0,.76,0,1.35,0,1.77,0,.19,0,.34,0,.46s0,.16,0,.16,0-.05,0-.14v-.44c0-.41,0-1,0-1.74,0-1.55,0-3.79,0-6.63,0-5.76.05-14,.09-23.81v-.17Z"></path><path d="M296.23,148.67l0-33.12h-.39l.18-.21,0,0,.34-.36a1.94,1.94,0,0,1,.29-.28l.57-.54,0,.43,34.67,0,0,6.57-.14,26.68.07.07-.11.28a.54.54,0,0,1-.18.23l-.1.05-.34.14-.07-.09-3.68,0-5.48,0Zm1.34-1.34,33.11.15,0-1.86,0-6.67-.08-23-32.93,0Z"></path></g><circle cx="291.2" cy="95.76" r="2.7" style="fill:#455a64"></circle><path d="M291.2,99a3.21,3.21,0,1,1,3.21-3.21A3.21,3.21,0,0,1,291.2,99Zm0-5.41a2.21,2.21,0,1,0,2.21,2.2A2.2,2.2,0,0,0,291.2,93.56Z"></path><path d="M380.4,124.4c0,.15-6.84.26-15.27.26s-15.27-.11-15.27-.26,6.84-.26,15.27-.26S380.4,124.26,380.4,124.4Z"></path></g><g id="freepik--Video--inject-192"><path d="M159.53,243.32l-36.65-8.69a2.66,2.66,0,0,1-1.67-3.18l6-23.85a2.65,2.65,0,0,1,2.89-2.12l36.73,8.94c1.28.32,1.57,1.62,1.26,2.9L161.75,242A1.83,1.83,0,0,1,159.53,243.32Z" style="fill:#fafafa"></path><path d="M159.16,243.22a2.77,2.77,0,0,0,1.38-.14,2.48,2.48,0,0,0,1.22-1.12,3.7,3.7,0,0,0,.33-1c.1-.38.2-.79.3-1.22.86-3.46,2.08-8.43,3.6-14.56.38-1.54.78-3.14,1.2-4.82l.64-2.57a6.74,6.74,0,0,0,.27-1.29,2.26,2.26,0,0,0-.31-1.21,2.12,2.12,0,0,0-.95-.85,11,11,0,0,0-1.35-.35l-2.85-.67L156.69,212l-26.51-6.26a2.22,2.22,0,0,0-2.57,1.48c-.29,1.15-.59,2.29-.88,3.43-.57,2.28-1.14,4.53-1.7,6.73l-3.23,12.74c-.13.51-.25,1-.38,1.51a2.31,2.31,0,0,0,0,1.4,2.11,2.11,0,0,0,.81,1.09,3.86,3.86,0,0,0,1.34.46l5.61,1.34,10.07,2.42,14.57,3.54,4,1,1,.27.34.1a1.56,1.56,0,0,1-.35-.06l-1-.22-4-.9-14.61-3.39-10.08-2.36L123.48,235a4.13,4.13,0,0,1-1.47-.52,2.55,2.55,0,0,1-1-1.3,2.75,2.75,0,0,1,0-1.63c.12-.5.25-1,.38-1.52l3.2-12.74c.56-2.21,1.12-4.45,1.7-6.74.29-1.14.58-2.3.88-3.46a2.7,2.7,0,0,1,3.12-1.79l26.5,6.31,6,1.42,2.85.68a10,10,0,0,1,1.41.39,2.53,2.53,0,0,1,1.12,1,2.67,2.67,0,0,1,.36,1.43,7.89,7.89,0,0,1-.29,1.37c-.22.87-.44,1.72-.65,2.56-.43,1.67-.84,3.28-1.23,4.81-1.58,6.12-2.85,11.07-3.74,14.53-.12.42-.22.83-.32,1.21a4.2,4.2,0,0,1-.37,1.05,2.53,2.53,0,0,1-1.3,1.13,2.2,2.2,0,0,1-1.06.14A1.52,1.52,0,0,1,159.16,243.22Z" style="fill:#455a64"></path><polygon points="146.82 222.24 151.03 226.39 145.31 228.14 139.59 229.9 141.1 224 142.62 218.09 146.82 222.24" style="fill:#455a64"></polygon></g><g id="freepik--Device--inject-192"><rect x="80.51" y="228.54" width="44.65" height="91.53" rx="6.78" transform="translate(-97.99 61.03) rotate(-22.73)" style="fill:#263238"></rect><path d="M100.52,228.65,95,231a1.51,1.51,0,0,0-.76,2l.43,1a1.5,1.5,0,0,1-.76,2L83,240.49a1.51,1.51,0,0,1-2-.85l-.42-1a1.49,1.49,0,0,0-1.94-.84l-2,.81-4.87,2a4.76,4.76,0,0,0-2.54,6.22l29.43,70.19a4.76,4.76,0,0,0,6.21,2.54l28.63-12a4.76,4.76,0,0,0,2.55-6.22l-29.44-70.19A4.75,4.75,0,0,0,100.52,228.65Z" style="fill:#fafafa"></path><path d="M104.43,235.56s-.71.34-1.6.73-1.61.67-1.62.65.7-.34,1.59-.72S104.42,235.54,104.43,235.56Z" style="fill:#263238"></path><path d="M104.78,236.38a17.48,17.48,0,0,1-1.59.73c-.89.38-1.62.67-1.63.66s.71-.35,1.6-.73S104.77,236.37,104.78,236.38Z" style="fill:#263238"></path><path d="M105.14,237.21s-.71.34-1.6.72-1.62.68-1.62.66.7-.34,1.59-.73S105.13,237.19,105.14,237.21Z" style="fill:#263238"></path><path d="M76.13,250.49s0,0,.07,0l.18-.08.69-.31v0l-.22-.5a1.58,1.58,0,0,1-.12-.29.29.29,0,0,1,.14-.31l.33-.14a.3.3,0,0,1,.34.18l.31.72,0,0,.86-.37,0,0-.46-1.08-.12-.28a.31.31,0,0,0-.21-.15l-.54-.22-.51-.21-.26-.1a.4.4,0,0,0-.23-.05.25.25,0,0,0-.19.12c0,.06-.06.15-.09.22l-.18.45c-.11.29-.24.56-.31.8s0,.23.09.34l.13.31.2.49.13.32a.48.48,0,0,1,0,.12.49.49,0,0,0,0-.11l-.14-.3c-.06-.14-.13-.31-.22-.5l-.13-.31-.08-.17a.64.64,0,0,1,0-.2c.08-.26.2-.52.31-.81l.18-.45a1.54,1.54,0,0,1,.1-.24.29.29,0,0,1,.23-.15.49.49,0,0,1,.27.06l.25.1.52.21.54.21.14.06a.45.45,0,0,1,.11.13l.12.28.46,1.08v0l0,0-.87.37h0v0l-.31-.73a.25.25,0,0,0-.27-.14l-.31.14a.22.22,0,0,0-.12.24c0,.09.08.19.11.28l.21.5v0h0l-.7.29-.18.07Z" style="fill:#263238"></path><path d="M107.17,249.13l.17-.09a2.62,2.62,0,0,0,.46-.31,2.41,2.41,0,0,0,.57-.69,2.45,2.45,0,0,0,.33-1.18,2.63,2.63,0,0,0-.09-.72,7.29,7.29,0,0,0-.29-.76,5.19,5.19,0,0,0-.38-.79,2.46,2.46,0,0,0-.64-.69,2.53,2.53,0,0,0-2-.43,7.2,7.2,0,0,0-1.08.41l-1.13.47C96.94,247,88.43,250.52,79,254.47a2.5,2.5,0,0,0-1.29,1.27,2.44,2.44,0,0,0-.1,1.78c.09.29.23.57.34.86a3.2,3.2,0,0,0,.44.79,2.54,2.54,0,0,0,1.48.89,2.37,2.37,0,0,0,.88,0,3.61,3.61,0,0,0,.82-.28l1.62-.68,3.13-1.31,10.83-4.53,7.3-3,2-.82.52-.21.18-.07-.17.08-.52.22-2,.84-7.29,3.08-10.82,4.56-3.12,1.31-1.62.68a3.55,3.55,0,0,1-.85.29,2.59,2.59,0,0,1-.92,0,2.63,2.63,0,0,1-1.56-.94,2.85,2.85,0,0,1-.45-.82c-.11-.28-.25-.56-.35-.86a2.62,2.62,0,0,1,1.47-3.2l24.08-10.09,1.13-.47a7.53,7.53,0,0,1,1.09-.4,2.63,2.63,0,0,1,2,.44,2.77,2.77,0,0,1,.66.71,6.4,6.4,0,0,1,.37.81,4.83,4.83,0,0,1,.29.77,2.7,2.7,0,0,1,.09.73,2.53,2.53,0,0,1-.35,1.2,2.6,2.6,0,0,1-.58.69,2.46,2.46,0,0,1-.48.3Z" style="fill:#263238"></path><path d="M106.42,246s0-.08-.15-.21a1.12,1.12,0,0,0-.59-.38,1.08,1.08,0,0,0-1,.26,1,1,0,0,0,.76,1.79,1.08,1.08,0,0,0,.85-.51,1.06,1.06,0,0,0,.15-.68c0-.17-.06-.26,0-.27a.22.22,0,0,1,0,.07.85.85,0,0,1,.06.19,1.15,1.15,0,0,1-.12.73,1.14,1.14,0,0,1-.93.58,1.17,1.17,0,0,1-1.12-.7,1.14,1.14,0,0,1,1.35-1.54,1.1,1.1,0,0,1,.61.43.5.5,0,0,1,.09.18A.15.15,0,0,1,106.42,246Z" style="fill:#263238"></path><path d="M107.7,247.53a2.19,2.19,0,0,1-.68-.25,2.21,2.21,0,0,1-.63-.35,2.22,2.22,0,0,1,.68.24C107.43,247.34,107.72,247.49,107.7,247.53Z" style="fill:#263238"></path><path d="M81.72,255.89l-.55.23,0-.14,1.25-.53.06.14-.55.23.59,1.41-.16.07Z" style="fill:#263238"></path><path d="M83.91,256l-1,.41a.47.47,0,0,0,.63.21.5.5,0,0,0,.29-.3l.13.06a.6.6,0,0,1-.37.38.63.63,0,0,1-.86-.34A.62.62,0,1,1,83.9,256,.43.43,0,0,1,83.91,256Zm-1,.29.83-.35a.44.44,0,0,0-.58-.21A.43.43,0,0,0,82.89,256.29Z" style="fill:#263238"></path><path d="M85.17,256.1l-.58-.33-.16.64-.18.07.21-.79-.68-.38.18-.07.54.31.16-.61.17-.07-.2.75.72.4Z" style="fill:#263238"></path><path d="M86.19,255.59a.42.42,0,0,1-.21.18.33.33,0,0,1-.48-.19l-.3-.71L85,255l0-.13.21-.09-.11-.26.16-.06.1.25.36-.15,0,.14-.35.15.29.69a.2.2,0,0,0,.29.13.32.32,0,0,0,.15-.13Z" style="fill:#263238"></path><rect x="83.34" y="263.34" width="7.24" height="7.24" transform="translate(-96.51 54.43) rotate(-22.76)" style="fill:#263238"></rect><rect x="83.34" y="263.34" width="7.24" height="7.24" transform="translate(-96.51 54.43) rotate(-22.76)" style="fill:#A3E2B6"></rect><path d="M102,257.5s-2.21,1-5,2.15-5,2.07-5,2,2.21-1,5-2.15S102,257.47,102,257.5Z" style="fill:#263238"></path><path d="M110.84,256.21s-4,1.74-8.94,3.82-9,3.74-9,3.7,4-1.74,8.94-3.81S110.83,256.18,110.84,256.21Z" style="fill:#263238"></path><path d="M111.24,257.76s-3.94,1.72-8.83,3.78-8.87,3.69-8.88,3.66,3.94-1.72,8.83-3.78S111.23,257.73,111.24,257.76Z" style="fill:#263238"></path><path d="M104.57,262.2s-2.32,1-5.2,2.25-5.25,2.17-5.26,2.14,2.32-1,5.21-2.25S104.56,262.17,104.57,262.2Z" style="fill:#263238"></path><rect x="87.99" y="274.42" width="7.24" height="7.24" transform="translate(-100.44 57.1) rotate(-22.76)" style="fill:#A3E2B6"></rect><path d="M106.7,268.63s-2.21,1-5,2.15-5,2.07-5,2,2.21-1,5-2.15S106.68,268.6,106.7,268.63Z" style="fill:#263238"></path><path d="M115.51,267.34s-4,1.74-8.94,3.82-9,3.73-9,3.7,4-1.74,8.94-3.82S115.5,267.31,115.51,267.34Z" style="fill:#263238"></path><path d="M115.91,268.89s-3.94,1.72-8.83,3.77-8.87,3.7-8.89,3.66,4-1.72,8.84-3.77S115.9,268.86,115.91,268.89Z" style="fill:#263238"></path><path d="M109.24,273.33s-2.32,1-5.21,2.25-5.24,2.17-5.25,2.14,2.32-1,5.21-2.25S109.23,273.3,109.24,273.33Z" style="fill:#263238"></path><rect x="92.66" y="285.55" width="7.24" height="7.24" transform="translate(-104.38 59.77) rotate(-22.76)" style="fill:#A3E2B6"></rect><path d="M111.37,279.76s-2.21,1-5,2.15-5,2.06-5,2,2.21-1,5-2.15S111.35,279.72,111.37,279.76Z" style="fill:#263238"></path><path d="M120.18,278.47s-4,1.74-8.94,3.81-9,3.74-9,3.71,4-1.74,8.94-3.82S120.17,278.43,120.18,278.47Z" style="fill:#263238"></path><path d="M120.58,280s-3.94,1.72-8.83,3.77-8.87,3.69-8.89,3.66,3.94-1.72,8.84-3.77S120.57,280,120.58,280Z" style="fill:#263238"></path><path d="M113.91,284.46s-2.32,1-5.21,2.25-5.24,2.17-5.25,2.14,2.32-1,5.21-2.26S113.9,284.42,113.91,284.46Z" style="fill:#263238"></path><rect x="97.33" y="296.67" width="7.24" height="7.24" transform="translate(-108.32 62.44) rotate(-22.76)" style="fill:#A3E2B6"></rect><path d="M116,290.88s-2.2,1-5,2.15-5,2.07-5,2,2.21-1,5-2.15S116,290.85,116,290.88Z" style="fill:#263238"></path><path d="M124.85,289.59s-4,1.74-8.94,3.82-9,3.74-9,3.71,4-1.74,8.94-3.82S124.83,289.56,124.85,289.59Z" style="fill:#263238"></path><path d="M125.25,291.14s-3.94,1.72-8.83,3.78-8.88,3.69-8.89,3.66,3.94-1.72,8.84-3.78S125.24,291.11,125.25,291.14Z" style="fill:#263238"></path><path d="M118.58,295.58s-2.32,1-5.21,2.25-5.24,2.17-5.25,2.14,2.31-1,5.2-2.25S118.57,295.55,118.58,295.58Z" style="fill:#263238"></path><rect x="101.99" y="307.8" width="7.24" height="7.24" transform="translate(-112.27 65.12) rotate(-22.76)" style="fill:#e0e0e0"></rect><path d="M120.7,302s-2.21,1-5,2.15-5,2.07-5,2,2.21-1,5-2.15S120.69,302,120.7,302Z" style="fill:#e0e0e0"></path><path d="M129.52,300.72s-4,1.74-8.94,3.82-9,3.73-9,3.7,4-1.74,8.94-3.82S129.5,300.69,129.52,300.72Z" style="fill:#e0e0e0"></path><path d="M129.92,302.27S126,304,121.08,306s-8.87,3.7-8.88,3.67,3.94-1.73,8.84-3.78S129.91,302.24,129.92,302.27Z" style="fill:#e0e0e0"></path><path d="M123.25,306.71s-2.32,1-5.21,2.25-5.24,2.17-5.25,2.14,2.31-1,5.2-2.25S123.23,306.68,123.25,306.71Z" style="fill:#e0e0e0"></path><g style="opacity:0.30000000000000004"><rect x="97.35" y="296.73" width="7.24" height="7.24" transform="translate(-108.34 62.45) rotate(-22.76)"></rect></g><g style="opacity:0.30000000000000004"><rect x="87.99" y="274.42" width="7.24" height="7.24" transform="translate(-100.44 57.1) rotate(-22.76)"></rect></g></g><g id="freepik--Note--inject-192"><path d="M346.52,198.52,334.27,238.3c3.38,4.15,7,8.11,13.28,10.07l30.28,8.33,11.75-47Z" style="fill:#e0e0e0"></path><polygon points="345 195.85 332.76 235.63 346.03 245.7 376.31 254.03 389.74 209.11 345 195.85" style="fill:#A3E2B6"></polygon><path d="M338.7,234l-5.94,1.62a17.9,17.9,0,0,0,4.6,5.69A25.63,25.63,0,0,0,346,245.7,17.21,17.21,0,0,1,338.7,234Z" style="fill:#A3E2B6"></path><g style="opacity:0.30000000000000004"><path d="M338.7,234c-2.36,1.28-5,2.88-5.94,1.62a17.9,17.9,0,0,0,4.6,5.69A25.63,25.63,0,0,0,346,245.7,17.21,17.21,0,0,1,338.7,234Z"></path></g><polygon points="339.5 204.12 361.16 199.58 360.24 195.03 338.26 199.22 339.5 204.12" style="fill:#e0e0e0"></polygon><polygon points="392.34 220.4 380.34 201.8 376.42 204.3 388.21 223.31 392.34 220.4" style="fill:#e0e0e0"></polygon><path d="M380.54,221.83c0,.08-7.65-2.11-17-4.89s-17-5.09-17-5.17,7.65,2.12,17.05,4.9S380.56,221.76,380.54,221.83Z" style="fill:#263238"></path><path d="M378.58,227.92c0,.08-7.66-2.11-17.05-4.89s-17-5.09-17-5.17,7.66,2.12,17.05,4.9S378.6,227.85,378.58,227.92Z" style="fill:#263238"></path><path d="M377.16,233.42c0,.07-7.65-2.12-17.05-4.9s-17-5.09-17-5.16,7.65,2.12,17,4.89S377.18,233.34,377.16,233.42Z" style="fill:#263238"></path><path d="M375.58,238.64c0,.08-7.66-2.11-17.05-4.89s-17-5.09-17-5.17,7.65,2.12,17.05,4.9S375.6,238.57,375.58,238.64Z" style="fill:#263238"></path></g><g id="freepik--Photos--inject-192"><rect x="219.69" y="34.7" width="31.97" height="39.99" transform="translate(176.5 289.29) rotate(-88.91)" style="fill:#ebebeb"></rect><path d="M256,39.1h-.76l-2.17,0-8.19-.13L216,38.44l.11-.1c-.18,9.51-.38,20.42-.6,32h0l-.11-.12,40,.79-.1.09c.21-9.62.37-17.6.49-23.18.07-2.79.12-5,.15-6.48,0-.75,0-1.32,0-1.71l0-.59v.57c0,.39,0,.95,0,1.69,0,1.5-.06,3.68-.1,6.46-.1,5.59-.23,13.59-.4,23.24v.1h-.09l-40-.74h-.11V70.3h0c.22-11.54.43-22.44.62-32v-.1H216l28.93.6,8.16.19,2.16,0,.55,0Z" style="fill:#263238"></path><rect x="221.68" y="36.11" width="27.95" height="37.18" transform="translate(176.47 289.27) rotate(-88.91)" style="fill:#A3E2B6"></rect><g style="opacity:0.30000000000000004"><polygon points="216.8 68.31 230.12 51.19 237.95 62.21 243.52 56.51 253.97 69.02 216.8 68.31"></polygon></g><g style="opacity:0.30000000000000004"><path d="M241.61,49.28a2.93,2.93,0,1,1-2.87-3A2.93,2.93,0,0,1,241.61,49.28Z"></path></g><rect x="168.08" y="57.45" width="60.43" height="48.31" transform="translate(-8.61 25.31) rotate(-7.15)" style="fill:#ebebeb"></rect><path d="M225.27,53.87l-.29.05-.84.11-3.26.43L208.61,56l-43.28,5.51.13-.18c1.8,14.27,3.86,30.63,6,47.93h0l-.19-.15,60-7.5-.13.17c-1.78-14.44-3.25-26.41-4.28-34.78-.51-4.19-.91-7.47-1.18-9.72-.14-1.12-.24-2-.31-2.56s-.09-.9-.09-.9l.12.86c.08.58.19,1.43.33,2.53.29,2.24.72,5.51,1.26,9.68,1.07,8.39,2.6,20.38,4.44,34.85l0,.15h-.14l-60,7.55-.17,0,0-.17h0c-2.17-17.31-4.21-33.67-6-47.94l0-.15.16,0,43.4-5.37,12.25-1.49,3.23-.39.82-.09Z" style="fill:#263238"></path><rect x="170.16" y="60.49" width="56.18" height="42.23" transform="translate(-8.61 25.3) rotate(-7.15)" style="fill:#A3E2B6"></rect><g style="opacity:0.4"><polygon points="173.01 106.05 189.21 77.56 203.32 92.35 210.41 82.61 228.75 99.06 173.01 106.05"></polygon></g><g style="opacity:0.4"><path d="M206,72.22a4.42,4.42,0,1,1-4.94-3.84A4.42,4.42,0,0,1,206,72.22Z"></path></g><polygon points="172.83 54.69 162.07 68.73 164.58 72.57 177.22 56.43 172.83 54.69" style="fill:#e0e0e0"></polygon><polygon points="232.61 90.94 221.86 104.98 224.37 108.81 237 92.68 232.61 90.94" style="fill:#e0e0e0"></polygon></g></svg>