<?xml version="1.0" encoding="utf-8"?>
<!-- Generator: Adobe Illustrator 28.3.0, SVG Export Plug-In . SVG Version: 6.00 Build 0)  -->
<svg version="1.1" id="Layer_1" xmlns="http://www.w3.org/2000/svg" xmlns:xlink="http://www.w3.org/1999/xlink" x="0px" y="0px"
	 viewBox="0 0 500 500" style="enable-background:new 0 0 500 500;" xml:space="preserve">
<style type="text/css">
	.st0{fill:#FFFFFF;}
	.st1{fill:#455A64;}
	.st2{fill:#263238;}
	.st3{opacity:0.3;}
	.st4{fill:#A3E2B6;}
	.st5{fill:#886962;}
	.st6{fill:#E0E0E0;}
	.st7{fill:#654742;}
	.st8{opacity:0.6;}
	.st9{fill:#FAFAFA;}
	.st10{opacity:0.2;}
	.st11{fill:#F5F5F5;}
	.st12{fill:#EBEBEB;}
	.st13{opacity:0.4;}
</style>
<g id="freepik--Floor--inject-192">
	<path class="st0" d="M486.3,473.4c0,0.1-105.8,0.3-236.3,0.3s-236.3-0.1-236.3-0.3s105.8-0.3,236.3-0.3S486.3,473.3,486.3,473.4z"
		/>
</g>
<g id="freepik--Character--inject-192">
	<rect x="168.5" y="375.2" class="st1" width="155.6" height="98.8"/>
	<path class="st1" d="M164.6,372.4h156c9.4,0,17,7.6,17,17v0.7c0,9.4-7.6,17-17,17h-156c-9.4,0-17-7.6-17-17v-0.7
		C147.6,380,155.2,372.4,164.6,372.4z"/>
	<path class="st2" d="M324.2,406.6c0,0.1-36.3,0.2-81.1,0.2s-81.2-0.1-81.2-0.2s36.3-0.2,81.2-0.2S324.2,406.5,324.2,406.6z"/>
	<path class="st2" d="M189.3,474.8c-0.1,0-0.2-15.1-0.2-33.6s0.1-33.6,0.2-33.6s0.2,15.1,0.2,33.6S189.4,474.8,189.3,474.8z"/>
	<path class="st2" d="M287.6,393.1c-0.3-0.8-0.5-1.7-0.6-2.5c-0.5-2.1-1.1-4.1-2-6c-0.9-1.9-1.9-3.8-3.1-5.5c-0.5-0.7-1-1.4-1.5-2.2
		c0.7,0.6,1.3,1.3,1.8,2c2.6,3.4,4.3,7.4,5.1,11.6C287.5,391.3,287.6,392.2,287.6,393.1z"/>
	<path class="st2" d="M295.9,387.9c-0.1,0-0.4-1-1.2-2.5c-2.2-3.9-5.7-7-9.9-8.6c-1.6-0.6-2.7-0.8-2.6-0.9c0.3,0,0.5,0,0.8,0.1
		c0.7,0.1,1.3,0.3,2,0.5c4.4,1.5,8,4.6,10.1,8.8c0.3,0.6,0.6,1.3,0.8,1.9C295.9,387.4,295.9,387.6,295.9,387.9z"/>
	<g class="st3">
		<path d="M203.2,373.1c6.2,34.3,17,69.6,32.2,101h7c2.9-4,1.9-9.5,0.1-14s-4.3-9-4.3-13.9c0-3,1-5.9,1.4-8.9
			c1.4-11.5-6.5-22.1-8.3-33.6c-0.7-4.1-0.3-9,2.9-11.7c2.8-2.5,6.8-2.6,10.5-2.5c9.6,0.2,19.4,1.4,28.8-0.7s18.7-8.6,20.6-18
			L203.2,373.1z"/>
	</g>
	<path class="st4" d="M294.5,265.5l30.5-8.2c0,0-6.5-19.3-11.6-33.3c-4.5-12.3-12-17.4-15.9-20.2c-1.6-1.1-3.4-1.9-5.4-2.1
		c-7.2-1-26.9-3.6-36.7-4.4c-12.1-1-37.4,5.6-37.4,5.6s-22.2,12.3-29.6,17.3c-1.8,1.2-3.2,3-4,5c-1.4,3.7-3.1,10.1-5.2,18.4
		c-1.4,5.3-5.8,22.6-5.8,22.6l26-0.8c5.2,15.9,10.1,30.2,10.1,30.2l-4.7,29.3c0,0,35.5,14.2,44.6,13.2s50.2-16.9,50.2-16.9
		s-4.7-46.4-4.7-47.8C294.9,272.9,294.7,269.5,294.5,265.5z"/>
	<g class="st3">
		<path d="M264.5,234.6c-2.1-2.4-5.2-3.5-8.3-3.1c-3.1,0.4-6,1.6-8.5,3.5c-7.9,5.4-13.5,13.4-18.4,21.5
			c-8.6,14.2-15.9,29.2-21.7,44.7l0.2,4c6.5-0.8,10.7-6.3,13.5-12.1s4-12.4,6.5-18.4c4.8-11.6,14-20.8,25.6-25.6
			c3.9,0.5,7.8-0.9,10.5-3.8C266.5,242.3,266.9,237.6,264.5,234.6z"/>
	</g>
	<path class="st2" d="M294.8,270.5c-0.1,0-1-8.4-1.9-18.9s-1.5-18.9-1.4-18.9s1,8.4,1.9,18.9S295,270.5,294.8,270.5z"/>
	<path class="st2" d="M192.4,232.8c0.2,0.4,0.3,0.9,0.4,1.3c0.2,1,0.5,2.2,0.9,3.6c0.7,3,1.6,7.3,2.6,12s1.9,8.9,2.5,12
		c0.3,1.5,0.5,2.7,0.7,3.6c0.1,0.4,0.2,0.9,0.2,1.4c-0.2-0.4-0.3-0.9-0.4-1.3c-0.2-1-0.5-2.2-0.9-3.6c-0.7-3.1-1.6-7.3-2.6-12
		s-1.9-8.9-2.5-12c-0.3-1.5-0.5-2.7-0.7-3.6C192.5,233.7,192.4,233.2,192.4,232.8z"/>
	<path class="st2" d="M290.2,202c0.1,0-0.7,3.4-1.3,7.7s-0.7,7.8-0.9,7.8c-0.1-0.8-0.2-1.5-0.1-2.3c0.1-1.8,0.2-3.7,0.5-5.5
		c0.3-1.8,0.6-3.6,1.1-5.4C289.6,203.4,289.8,202.7,290.2,202z"/>
	<path class="st5" d="M294.5,265.5c-0.3,0.1,7.8,27.6,7.8,27.6l-23.6-1.9L267.5,305l40.2,14.8c0,0,24.9-11.1,24.9-12.1s-9-50-9-50
		L294.5,265.5z"/>
	<path class="st2" d="M277.2,268.7c0.5,0,0.9-0.2,1.2-0.6c0.4-0.4,0.6-1,0.5-1.5c-0.1-0.8-0.6-1.4-1.4-1.6c-0.9-0.3-1.9-0.1-2.6,0.5
		c-0.4,0.3-0.8,0.8-1,1.2c-0.1,0.3-0.2,0.5-0.3,0.8c-0.1,0.3-0.2,0.6,0,0.8c0.2,0.2,0.4,0.3,0.7,0.2c0.3-0.1,0.5-0.2,0.7-0.5
		c0.4-0.5,0.5-1.2,0.3-1.8c-0.6-1.3-2.2-1.8-3.5-1.2c0,0,0,0-0.1,0c-0.7,0.3-1.3,0.8-1.8,1.4c-0.2,0.3-0.4,0.6-0.5,1
		c-0.1,0.3,0.2,0.7,0.5,0.7c0.4,0.1,0.7-0.1,1-0.3c0.3-0.3,0.4-0.6,0.5-1c0-0.8-0.4-1.6-1-2.1c-0.8-0.5-1.7-0.6-2.5-0.3
		c-0.9,0.2-1.6,0.8-2,1.6c-0.2,0.4-0.2,0.8-0.1,1.2c0.2,0.4,0.6,0.6,1,0.6c0.8,0,1.3-0.6,1.3-1.4c0-0.2,0-0.3-0.1-0.5
		c-0.3-0.9-1.2-1.5-2.2-1.4c-1,0.1-2,0.5-2.7,1.3c-0.4,0.3-0.7,0.7-1,1.2c-0.3,0.4-0.4,0.8-0.3,1.3c0.2,0.4,0.7,0.5,1.1,0.3
		c0,0,0,0,0,0c0.4-0.2,0.7-0.7,0.6-1.2c-0.1-1.1-0.7-2-1.6-2.6c-1.4-0.9-3.3-0.6-4.4,0.7c-0.3,0.4-0.5,0.9-0.5,1.4
		c0.1,1,1.8,1.2,2.3,0.4c0.5-0.9,0.2-2.1-0.7-2.7c-1-0.5-2.1-0.6-3.1-0.2c-0.5,0.2-1,0.5-1.5,0.8c-0.5,0.3-0.9,0.6-1.2,1
		c-0.3,0.4-0.3,0.9-0.1,1.4c0.2,0.4,0.6,0.6,1,0.4c0,0,0.1,0,0.1,0c0.4-0.2,0.6-0.7,0.5-1.2c-0.1-0.5-0.3-1-0.6-1.4
		c-0.7-0.8-1.7-1.2-2.7-1.1c-1,0.1-1.9,0.7-2.4,1.6c-0.2,0.4-0.2,0.9-0.1,1.3c0.2,0.4,0.6,0.6,1,0.5c0.4-0.1,0.8-0.3,1-0.7
		c0.2-0.4,0.2-0.9,0-1.3c-0.4-0.8-1.2-1.4-2.1-1.5c-0.9-0.2-1.8-0.2-2.7,0.1c-0.9,0.2-1.5,0.8-1.8,1.7c-0.2,0.8,0.2,1.7,1,2
		c0.8,0.1,1.5-0.4,1.7-1.1c0.2-0.8-0.1-1.6-0.6-2.1c-0.5-0.6-1.2-1-1.9-1.1c-1.4-0.3-2.9,0-4,1c-0.5,0.4-0.8,1-1,1.6
		c-0.1,0.6,0.1,1.2,0.5,1.6c0.4,0.4,1.1,0.3,1.4,0c0.4-0.3,0.6-0.9,0.5-1.4c-0.2-1-0.8-1.8-1.7-2.2c-0.7-0.4-1.4-0.5-2.2-0.3
		c-0.5,0.1-1.1,0.4-1.5,0.7c-0.3,0.3-0.6,0.7-0.9,1.1c0-0.1,0.1-0.2,0.1-0.3c0.2-0.3,0.4-0.6,0.7-0.8c0.4-0.4,1-0.7,1.5-0.8
		c0.8-0.2,1.6-0.1,2.3,0.3c0.9,0.4,1.6,1.3,1.8,2.3c0.1,0.6-0.1,1.2-0.6,1.6c-0.5,0.5-1.3,0.5-1.8,0.1c-0.6-0.5-0.8-1.2-0.6-1.9
		c0.1-0.7,0.5-1.3,1-1.8c1.2-1.1,2.8-1.5,4.3-1.1c0.8,0.2,1.6,0.6,2.1,1.3c0.6,0.7,0.9,1.6,0.7,2.5c-0.1,0.5-0.4,0.9-0.8,1.2
		c-0.4,0.3-0.9,0.4-1.4,0.3c-0.5-0.2-0.9-0.5-1.1-1c-0.2-0.5-0.3-1-0.2-1.5c0.3-1,1.1-1.8,2.1-2c1-0.3,2-0.3,3-0.1
		c1.1,0.2,2,0.8,2.5,1.8c0.2,0.5,0.2,1.1,0,1.7c-0.3,0.5-0.8,0.9-1.4,1c-0.6,0.1-1.3-0.2-1.6-0.8c-0.2-0.6-0.2-1.2,0.1-1.8
		c0.9-1.7,3.1-2.4,4.8-1.5c0.4,0.2,0.8,0.5,1.1,0.9c0.4,0.5,0.7,1,0.7,1.6c0.1,0.7-0.2,1.3-0.8,1.7c-0.3,0.2-0.7,0.2-1,0.1
		c-0.3-0.1-0.6-0.4-0.8-0.7c-0.3-0.6-0.3-1.3,0.1-1.9c0.4-0.5,0.8-0.9,1.4-1.2c0.5-0.3,1-0.6,1.6-0.8c1.2-0.5,2.5-0.4,3.6,0.2
		c1.2,0.7,1.6,2.3,0.9,3.4c0,0,0,0,0,0c-0.4,0.6-1.1,0.9-1.8,0.7c-0.4,0-0.7-0.2-1-0.4c-0.3-0.2-0.4-0.6-0.5-0.9
		c-0.1-0.7,0.1-1.3,0.6-1.8c1.3-1.5,3.4-1.8,5.1-0.8c1.1,0.6,1.7,1.8,1.8,3c0,0.7-0.3,1.3-0.9,1.6c-0.3,0.2-0.7,0.2-1,0.1
		c-0.4-0.1-0.7-0.3-0.8-0.6c-0.2-0.6-0.1-1.3,0.3-1.8c0.3-0.5,0.7-0.9,1.1-1.3c0.8-0.8,1.9-1.3,3-1.4c0.6,0,1.2,0.1,1.7,0.4
		c0.5,0.3,0.9,0.8,1,1.4c0.2,0.6,0.1,1.2-0.2,1.7c-0.3,0.5-0.9,0.8-1.5,0.8c-0.6,0-1.2-0.3-1.5-0.8c-0.2-0.5-0.2-1.1,0.1-1.6
		c0.4-1,1.3-1.6,2.3-1.9c1-0.3,2-0.1,2.9,0.4c0.8,0.6,1.3,1.5,1.2,2.5c0,1-0.8,1.8-1.8,1.8c-0.1,0-0.1,0-0.2,0
		c-0.5-0.1-0.9-0.6-0.8-1.2c0.1-0.5,0.3-0.9,0.5-1.2c0.5-0.7,1.2-1.2,2-1.5c1.5-0.7,3.3-0.1,4,1.4c0.2,0.7,0.1,1.5-0.4,2.1
		c-0.2,0.3-0.5,0.5-0.9,0.6c-0.4,0.1-0.8,0-1-0.3c-0.1-0.3-0.1-0.7,0-1c0.1-0.3,0.2-0.6,0.3-0.8c0.3-0.5,0.6-1,1.1-1.3
		c0.8-0.7,1.9-0.8,2.9-0.5c0.8,0.3,1.4,1,1.5,1.8c0,0.6-0.2,1.2-0.6,1.6C278,268.5,277.6,268.7,277.2,268.7z"/>
	<polygon class="st1" points="235.3,265.8 221.5,317.8 265.2,319.2 279,267.8 	"/>
	<polygon class="st6" points="235.3,265.8 233.5,266 219.6,314 221.7,316.9 	"/>
	<path class="st5" d="M264.2,279.1h14.2c1.4,0,2.6,0.8,3.1,2c0.6,1.3,0.8,2.7,0.8,4.1c0.6,0.8,1,1.8,1,2.9c0.1,2.6,0.1,5.2,0,7.8
		c-0.1,0.4-1.6,0.8-1.6,0.8s1,2.2,0.1,3.8c-0.4,0.9-1.1,1.6-2,2c0,0-1.9,4.4-3.8,4.9s-3.7,0-4.6,0s-16.4-7.9-16.4-7.9v-1.8
		c0,0-5.5,0.5-5.6-2.5s3.6-2.8,3.6-2.8h8.3c0,0-9.2,0.4-10-1s-1.9-4.6,0.9-5.2s15.4-0.5,15.4-0.5l6.9,1.1h1.1l-0.9-3
		c0,0-7.2,0-8.3-0.1s-3.1-0.4-3.1-2.3S264.2,279.1,264.2,279.1z"/>
	<path class="st7" d="M272.2,293.3c-0.9,0.2-1.8,0.2-2.6,0.2c-1.6,0-3.9,0-6.4-0.2s-4.8-0.4-6.4-0.6c-0.9-0.1-1.8-0.3-2.6-0.5
		c0.9,0,1.8,0,2.7,0.1c1.6,0.1,3.9,0.3,6.4,0.5s4.8,0.3,6.4,0.3C270.4,293.1,271.3,293.2,272.2,293.3z"/>
	<path class="st7" d="M270.9,301c-0.8,0.1-1.6,0.1-2.4-0.1c-1.5-0.1-3.5-0.4-5.6-0.7s-4.2-0.8-5.6-1.1c-0.8-0.1-1.5-0.4-2.3-0.7
		c0.8,0,1.6,0.1,2.3,0.3l5.6,1l5.6,0.9C269.4,300.6,270.2,300.8,270.9,301z"/>
	<path class="st7" d="M282.8,290.3c0,0,0.2,0.1,0.5,0.3c0.4,0.4,0.7,0.8,0.9,1.4c0.3,0.8,0.3,1.7,0,2.5c-0.5,1-1.4,1.8-2.5,2.1
		l0.2-0.4c1.3,2.1,0.5,4.9-1.6,6.1c-0.1,0.1-0.3,0.2-0.5,0.2l0.2-0.2c-0.5,1.9-1.6,3.5-3.1,4.7c-0.4,0.3-0.9,0.6-1.4,0.9
		c-0.2,0.1-0.4,0.2-0.5,0.2c0-0.1,0.7-0.4,1.7-1.3c1.4-1.2,2.3-2.8,2.8-4.5v-0.1l0.1,0c2-0.9,2.9-3.3,2-5.3c0-0.1-0.1-0.2-0.2-0.3
		l-0.2-0.3l0.4-0.1c0.9-0.2,1.7-0.9,2.2-1.7c0.3-0.7,0.4-1.5,0.2-2.2C283.7,291.4,283.3,290.8,282.8,290.3z"/>
	<path class="st5" d="M249.3,222.7l8.8-17.7l-2.7-7.7c0,0,13.2-6.8,8.7-20.8c-2.2-6.7-7.8-20.2-13-32.4
		c-5.6-13.1-20.3-19.6-33.8-15.1l-1.3,0.4c-14.2,5.7-17.2,20.9-11.1,34.9l17.8,52L249.3,222.7z"/>
	<path class="st7" d="M255.4,197.2c-6.4,2.3-13.3,2.6-19.8,0.9c0,0,7.6,8.6,21.1,2.6L255.4,197.2z"/>
	<path class="st2" d="M251.5,155.1c0.4,1.1-0.2,2.2-1.2,2.6c-1,0.4-2.2,0-2.6-1c0,0,0,0,0-0.1c-0.4-1.1,0.2-2.2,1.2-2.6
		C249.9,153.5,251.1,154,251.5,155.1C251.5,155,251.5,155,251.5,155.1z"/>
	<path class="st2" d="M250.3,151.1c-0.2,0.3-2-0.3-4.2,0.5s-3.3,2.3-3.7,2.1c-0.1-0.1-0.1-0.6,0.5-1.4c0.7-0.9,1.7-1.6,2.8-2
		c1.1-0.4,2.3-0.4,3.4,0C250,150.5,250.4,150.9,250.3,151.1z"/>
	<path class="st2" d="M231.9,161.6c0.4,1.1-0.2,2.2-1.2,2.6c-1,0.4-2.2,0-2.6-1c0,0,0,0,0-0.1c-0.4-1.1,0.2-2.2,1.2-2.6
		C230.3,160,231.4,160.5,231.9,161.6C231.9,161.5,231.9,161.6,231.9,161.6z"/>
	<path class="st2" d="M229.6,157.4c-0.1,0.4-2.1,0-4.1,0.9s-3.1,2.7-3.4,2.5c-0.2-0.1-0.1-0.6,0.3-1.4c0.6-1,1.5-1.8,2.6-2.3
		c1.1-0.5,2.3-0.6,3.4-0.4C229.2,156.9,229.7,157.2,229.6,157.4z"/>
	<path class="st2" d="M242.6,172.5c1-0.7,2.1-1.3,3.2-1.8c0.5-0.2,1-0.5,1-0.9s-0.4-0.9-0.9-1.5l-3-3.6c-4.2-5.2-7.5-9.5-7.3-9.6
		s3.8,3.9,8,9l2.9,3.6c0.6,0.5,0.9,1.3,1,2.1c0,0.4-0.3,0.8-0.6,1.1c-0.3,0.2-0.6,0.3-0.9,0.4C245,171.9,243.8,172.3,242.6,172.5z"
		/>
	<path class="st2" d="M226.7,150c0,0.6-2.2,1.1-4.6,2.2s-4.2,2.5-4.7,2.1c-0.2-0.2-0.1-0.9,0.6-1.7c1.7-2.1,4.4-3.3,7.1-3.3
		C226.1,149.3,226.7,149.6,226.7,150z"/>
	<path class="st2" d="M247.8,145.3c-0.2,0.6-1.9,0.6-3.6,1.2s-3.1,1.4-3.7,1c-0.2-0.2-0.2-0.8,0.3-1.4c1.4-1.7,3.7-2.4,5.9-1.8
		C247.5,144.6,247.9,145,247.8,145.3z"/>
	<path class="st5" d="M209.4,174.2c-0.3,0-10.5,0.4-7,9.8s12.2,4,12.1,3.7S209.4,174.2,209.4,174.2z"/>
	<path class="st7" d="M210.3,185.2c-0.1,0-0.1,0.2-0.4,0.4c-0.3,0.3-0.8,0.5-1.2,0.5c-1.1,0-2.6-1.3-3.2-2.9
		c-0.3-0.8-0.5-1.7-0.4-2.5c0-0.7,0.2-1.3,0.8-1.7c0.4-0.2,0.8-0.2,1.1,0.1c0.2,0.2,0.2,0.4,0.3,0.4s0.1-0.2-0.1-0.6
		c-0.1-0.2-0.3-0.4-0.6-0.4c-0.3-0.1-0.7-0.1-1,0.1c-0.7,0.4-1.2,1.2-1.2,2.1c-0.1,1,0,1.9,0.4,2.8c0.8,1.9,2.4,3.3,3.9,3.2
		c0.6,0,1.1-0.3,1.4-0.8C210.4,185.4,210.4,185.2,210.3,185.2z"/>
	<path class="st2" d="M236.8,176.1c0.3-0.1,1.1,2.2,3.7,3.1s4.9-0.1,5,0.2c0.1,0.1-0.4,0.6-1.4,1c-1.3,0.5-2.8,0.5-4.2-0.1
		c-1.3-0.5-2.3-1.4-2.9-2.7C236.6,176.8,236.6,176.2,236.8,176.1z"/>
	<path class="st2" d="M254.5,123.5c-0.9-1.8-2.6-2.9-4.5-3.2c-0.2-0.5-0.4-1-0.7-1.5c-1.8-3-5.4-4.4-8.7-3.2c-2-3.4-6.5-4.6-9.9-2.5
		c-1.2,0.7-2.2,1.8-2.9,3.2c-3.1-1.3-6.7-0.6-9.2,1.8c-0.3,0.3-0.5,0.6-0.7,1c-0.1,0.3,0,0.6,0.2,0.8c-1.4-1.1-3.2-1.5-4.9-1
		c-0.6,0.2-1.1,0.4-1.6,0.8c-1.5,0.6-2.6,1.8-3.2,3.3c-4.4,0.1-8.1,3.4-8.5,7.8c-3.1,1.3-5.1,4.3-5.1,7.7c-3.1,1.3-4.5,4.8-3.2,7.8
		c0.4,1,1.1,1.9,2,2.5c0,0-6.1,3.7-2.4,9.1c1.9,2.7,5.8,0.8,5.8,0.8l11.5,17.5c-0.1,0.1,2,1.9,3,1.1s1.2-2.3,1.5-3.5
		c0.5-1.4,0.7-2.9,0.7-4.4c0-1.5-1.1-2.9-2.6-3.3c1.4-1.2,2-3.1,1.7-4.9c-0.4-1.8-1-3.5-2-5.1l-3.9-7.1c3.5-1.3,5.9-4.5,6.4-8.1
		c3,0.9,6.2-0.9,7.1-3.9c0.1-0.2,0.1-0.4,0.1-0.7c2.5,3.1,6.9,3.7,10.1,1.5c0.3,2.1,4.4,2.7,6.5,2.6s4.1-2.3,4.1-2.3
		c1.4,0.3,2.9,0.3,4.3,0.1l0,0l0.2-0.1c2.8-0.6,4.6-4,5.1-6.8c0.7-0.2,1.4-0.5,2-0.9C254.9,128.7,255.5,125.9,254.5,123.5z"/>
	<path class="st5" d="M176.5,266.1c0,0-6.1,22-7.4,27.4s-1.3,17.9,1.7,21.6s13.1,6,13.1,6s19.8-9.6,26.5-21.4s25.1-43.8,25.1-43.8
		l-5.8-16L199,269.2l0.3-3.8L176.5,266.1z"/>
	<path class="st1" d="M240.5,189.5L240.5,189.5c1.1-0.5,2.4-0.1,2.9,0.9c0,0,0,0,0,0l17.6,35.1l-4.5,2l-17-35.2
		C239,191.3,239.4,190,240.5,189.5z"/>
	<path class="st5" d="M228.7,241l16.5-17h15.8l10.1,13.4c0,0-4.8,0.9-6.5-1.7l-2.2-3.2c0,0,2.2,4.9,1,7.3c0,0-2.4,5.6-2.8,6.2
		c-0.7,1.1-1.3,1.8-3.3,1.5s-5.3-2-4.9-3.2c0.2-0.7,0.8-1.2,1.5-1.4l-4.8-0.7c0,0-4.8,8.8-7.8,10.8c-1.8,1.3-3.8,2.3-5.9,2.9
		L228.7,241z"/>
	<path class="st7" d="M199.6,268.7c0,0.1-1.3,0.7-3.4,1.9c-2.7,1.6-5.3,3.5-7.6,5.6c-2.4,2.1-4.5,4.5-6.4,7
		c-1.5,1.9-2.2,3.2-2.3,3.2c0.1-0.3,0.3-0.7,0.5-1c0.3-0.6,0.9-1.4,1.6-2.5c3.7-5.3,8.5-9.6,14.1-12.7c1.1-0.6,2-1,2.6-1.3
		C198.9,268.9,199.3,268.8,199.6,268.7z"/>
	<path class="st7" d="M248.8,228.9c0.8-0.2,1.5-0.3,2.3-0.4c1.4-0.2,3.4-0.4,5.6-0.6c0.6-0.1,1.1-0.1,1.7,0c0.5,0.1,1,0.3,1.5,0.6
		c0.7,0.5,1.3,1.2,1.7,2c0.4,0.7,0.6,1.5,0.7,2.2c-0.1,0-0.4-0.8-1.1-2.1c-0.4-0.7-0.9-1.3-1.6-1.8c-0.4-0.3-0.8-0.4-1.3-0.5
		c-0.5-0.1-1-0.1-1.5,0c-2.2,0.2-4.2,0.3-5.6,0.4C250.3,228.9,249.6,229,248.8,228.9z"/>
	<path class="st7" d="M261.4,245.1c-0.1,0,0.1-1.2,0-3.1c-0.1-1.1-0.2-2.2-0.5-3.3c-0.3-1.2-0.7-2.6-1.9-3.3c-0.6-0.3-1.3-0.6-2-0.7
		l-1.9-0.4c-1.1-0.2-2.2-0.4-3.3-0.5c-1,0-2.1,0-3.1,0.1c0.2-0.1,0.5-0.2,0.8-0.3c0.8-0.1,1.5-0.2,2.3-0.2c1.1,0,2.3,0.2,3.4,0.4
		c0.6,0.1,1.3,0.3,2,0.4c0.7,0.1,1.4,0.4,2.1,0.7c0.7,0.4,1.2,1,1.5,1.7c0.3,0.6,0.5,1.3,0.6,2c0.2,1.1,0.3,2.3,0.4,3.4
		c0,0.8,0,1.5-0.1,2.3C261.6,244.6,261.5,244.8,261.4,245.1z"/>
	<path class="st7" d="M255.6,239.4c0.2,1,0.3,2.1,0.2,3.2v0.3l-0.3-0.1c-0.2,0-0.4,0-0.5,0c-0.8,0-1.6,0.4-2.2,1
		c-0.4,0.5-0.6,0.9-0.7,0.8s0-0.5,0.4-1.1c0.6-0.8,1.5-1.2,2.5-1.2c0.2,0,0.4,0,0.6,0.1l-0.3,0.2
		C255.3,241.5,255.4,240.4,255.6,239.4z"/>
	<path class="st7" d="M255.6,239.9c-1.1,0-2.1,0-3.2-0.1c-1.1,0-2.1,0-3.2-0.2c1-0.4,2.1-0.5,3.2-0.3
		C253.6,239.2,254.7,239.4,255.6,239.9z"/>
	<path class="st7" d="M249.5,239.1c0.1,1.1-0.2,2.3-0.7,3.3c-0.4,1.1-1,2.1-1.9,2.8c-0.1-0.1,0.7-1.3,1.4-3S249.4,239.1,249.5,239.1
		z"/>
	<path class="st4" d="M312.7,431.3l-1.4,45.3l56.3,2.1c-0.1-5.4-28.9-17.3-28.9-17.3l2.1-29L312.7,431.3z"/>
	<g class="st8">
		<path class="st0" d="M321.4,458.3c-1.1,0.3-1.9,1.4-1.7,2.6c0.3,1.1,1.4,1.9,2.5,1.7c1.2-0.3,2-1.5,1.8-2.7
			c-0.4-1.2-1.6-1.8-2.8-1.5"/>
	</g>
	<g class="st8">
		<path class="st0" d="M311.2,476.6l0.3-4.6l53.9,3.7c0,0,2.5,1.2,2.1,2.9L311.2,476.6z"/>
	</g>
	<path class="st2" d="M339.6,461.1c0,0.3-1.4,0.4-2.8,1.2s-2.1,2-2.4,1.9s0.2-1.7,1.9-2.7S339.7,460.9,339.6,461.1z"/>
	<path class="st2" d="M345.4,463.8c0.1,0.3-1.1,0.7-2.1,1.8s-1.3,2.4-1.6,2.3s-0.4-1.6,0.9-3S345.4,463.5,345.4,463.8z"/>
	<path class="st2" d="M348.5,471c-0.2,0-0.6-1.3,0.2-2.8s2.1-2,2.2-1.8s-0.7,1-1.3,2.2S348.8,471,348.5,471z"/>
	<path class="st2" d="M339.4,454.5c-0.1,0.2-1.4-0.2-2.9-0.1s-2.8,0.5-2.9,0.3s1.1-1.2,2.9-1.2S339.5,454.3,339.4,454.5z"/>
	<path class="st2" d="M338.3,447.7c0,0.1-1.1,0.2-2.8-0.1c-1-0.2-2-0.5-2.9-1c-0.6-0.3-1.1-0.6-1.6-0.9c-0.3-0.2-0.6-0.4-0.8-0.7
		c-0.4-0.4-0.4-1-0.1-1.5c0.3-0.4,0.8-0.6,1.2-0.6c0.4,0,0.7,0.1,1,0.2c0.6,0.2,1.2,0.4,1.7,0.7c0.9,0.5,1.8,1.1,2.5,1.8
		c1.3,1.3,1.7,2.3,1.6,2.4s-0.7-0.8-2-1.9c-0.8-0.6-1.6-1.1-2.5-1.5c-0.5-0.2-1.1-0.4-1.6-0.5c-0.6-0.2-1.1-0.2-1.3,0
		c0,0.1-0.1,0.1,0.1,0.3c0.2,0.2,0.4,0.4,0.6,0.5c0.5,0.3,1,0.6,1.5,0.9c0.9,0.5,1.8,0.8,2.7,1.1
		C336.5,447.1,337.4,447.4,338.3,447.7z"/>
	<path class="st2" d="M337.9,448.1c-0.1,0-0.6-1-0.6-2.8c0-1.7,0.4-3.3,1.3-4.8c0.3-0.7,1-1.3,1.9-1.4c0.5,0,1,0.4,1.1,0.8
		c0.1,0.3,0.2,0.7,0.2,1c0.1,0.6,0,1.3-0.1,1.9c-0.2,1-0.6,2-1.3,2.9c-1.1,1.4-2.3,1.7-2.3,1.6s0.9-0.6,1.8-2c0.5-0.8,0.9-1.7,1-2.6
		c0.1-0.5,0.1-1.1,0-1.6c-0.1-0.6-0.3-1.1-0.5-1s-0.8,0.4-1,0.9c-0.3,0.5-0.6,1-0.8,1.5c-0.3,0.9-0.6,1.8-0.6,2.8
		C337.8,447,338,448.1,337.9,448.1z"/>
	<path class="st4" d="M228.2,431.6l14.3,43l-53.4,18c-1.4-5.2,22.8-24.8,22.8-24.8l-10.3-27.2L228.2,431.6z"/>
	<g class="st8">
		<path class="st0" d="M227.5,460c1.2,0,2.2,0.8,2.4,2c0.1,1.2-0.8,2.2-1.9,2.4c-1.2,0-2.3-0.9-2.5-2.1c0-1.1,1.2-2.4,2.3-2.2"/>
	</g>
	<g class="st8">
		<path class="st0" d="M242.4,474.6l-1.6-4.3l-50.6,18.9c0,0-2,1.8-1.2,3.4L242.4,474.6z"/>
	</g>
	<path class="st2" d="M210.9,467.9c0.1,0.2,1.4-0.1,3,0.3s2.6,1.3,2.8,1.1s-0.7-1.5-2.6-2S210.7,467.7,210.9,467.9z"/>
	<path class="st2" d="M206,472.1c0,0.3,1.3,0.3,2.6,1.1s1.9,1.9,2.2,1.8s-0.1-1.6-1.7-2.6S206,471.9,206,472.1z"/>
	<path class="st2" d="M205.1,479.9c0.2,0,0.2-1.5-1-2.6s-2.6-1.4-2.6-1.1s1,0.8,1.9,1.8S204.9,479.9,205.1,479.9z"/>
	<path class="st2" d="M209.2,461.4c0.2,0.2,1.3-0.6,2.8-1s2.8-0.3,2.9-0.6s-1.4-0.8-3.1-0.3S209,461.3,209.2,461.4z"/>
	<path class="st2" d="M208.3,454.7c0,0.1,1.1-0.1,2.7-0.9c0.9-0.5,1.7-1.1,2.5-1.8c0.5-0.4,0.9-0.9,1.3-1.3c0.2-0.3,0.4-0.6,0.6-0.9
		c0.2-0.5,0.1-1.1-0.4-1.4c-0.4-0.3-0.9-0.4-1.3-0.2c-0.4,0.1-0.7,0.3-1,0.5c-0.5,0.3-1,0.7-1.5,1.1c-0.8,0.7-1.4,1.5-1.9,2.5
		c-0.5,0.8-0.8,1.7-0.8,2.7c0.1,0,0.5-1,1.4-2.4c0.6-0.8,1.2-1.5,1.9-2.1c0.4-0.4,0.9-0.7,1.4-1c0.5-0.3,1-0.5,1.2-0.3
		s0.1,0.1,0,0.3c-0.1,0.2-0.3,0.5-0.4,0.7c-0.4,0.5-0.7,0.9-1.1,1.3c-0.7,0.7-1.4,1.3-2.2,1.9C209.3,454.1,208.3,454.5,208.3,454.7z
		"/>
	<path class="st2" d="M208.8,454.9c0.1,0,0.3-1.1-0.2-2.8c-0.5-1.6-1.4-3.1-2.6-4.2c-0.5-0.6-1.4-0.9-2.2-0.8
		c-0.5,0.2-0.8,0.6-0.9,1.1c0,0.4,0,0.7,0.1,1.1c0.3,1.7,1.3,3.2,2.7,4.2c1.5,1,2.7,1,2.7,0.9c-0.8-0.4-1.5-0.9-2.3-1.4
		c-0.7-0.6-1.3-1.4-1.7-2.2c-0.2-0.5-0.4-1-0.5-1.6c-0.1-0.6,0-1.1,0.2-1.1c0.5,0,0.9,0.2,1.2,0.6c0.4,0.4,0.8,0.8,1.2,1.2
		c0.6,0.8,1.1,1.6,1.4,2.5C208.6,453.9,208.6,455,208.8,454.9z"/>
	<path class="st2" d="M215.3,329.5c0,0-20.9-18.5-30.1-18.4s-39.3-1.9-26.7,39.9c12.7,42.1,35.5,106.4,36.2,104.1l39.3-17.2L218,378
		c0,0,53.5,0.6,63.8-0.8s29.6-15,29.6-15l-3.1,75.6l41-2.3c0,0,5.8-90.8,7.4-109.5c1.4-16.2-16.8-34.5-35.5-30.4
		c-12.2,2.7-55.6,33.4-55.6,33.4L215.3,329.5z"/>
	<path class="st1" d="M312.9,322.1c0.1,0.7,0.1,1.3,0,2c-0.1,1.4-0.2,3.2-0.3,5.4c-0.2,4.5-0.4,10.8-0.5,17.8s-0.2,13.2-0.5,17.8
		c-0.1,2.3-0.2,4.1-0.4,5.4c0,0.7-0.1,1.3-0.3,2c-0.1-0.7-0.1-1.3,0-2c0-1.4,0.1-3.2,0.1-5.4c0.1-4.7,0.2-10.9,0.3-17.8
		s0.3-13.2,0.7-17.8c0.2-2.3,0.3-4.1,0.5-5.4C312.6,323.4,312.7,322.7,312.9,322.1z"/>
	<path class="st1" d="M311.2,357.5c-0.7-0.6-1.3-1.4-1.8-2.2c-2.5-3.9-3.9-8.3-4-13c-0.1-0.9,0-1.9,0.2-2.8c0.2,0-0.1,4.4,1.5,9.4
		S311.4,357.4,311.2,357.5z"/>
	<path class="st1" d="M255.4,372.8c-0.1,0-0.1-1-0.5-2.9c-0.4-2.6-1.2-5.2-2.1-7.6c-1.5-3.6-3.5-7-5.9-10.1c-3-3.7-6.8-6.8-11-9.1
		c-8.9-5.1-16.7-10.2-22.2-14.1c-2.7-2-4.9-3.7-6.3-4.9c-0.7-0.6-1.2-1.1-1.6-1.5c-0.2-0.2-0.4-0.3-0.5-0.5c0,0,0.8,0.6,2.3,1.8
		s3.6,2.8,6.4,4.7c5.5,3.8,13.4,8.8,22.2,14c4.3,2.3,8.1,5.5,11.1,9.3c2.5,3.1,4.5,6.6,5.9,10.3c1,2.5,1.6,5.1,2,7.8
		c0.1,0.7,0.2,1.4,0.2,2.2C255.4,372.3,255.4,372.6,255.4,372.8z"/>
	<path class="st1" d="M269.9,328.5c-0.2,0.6-0.4,1.2-0.7,1.8c-0.5,1.1-1.1,2.7-1.9,4.7c-4,10.5-5.8,21.7-5.4,33
		c0.1,2.1,0.2,3.9,0.3,5.1c0.1,0.6,0.1,1.3,0.1,1.9c-0.2-0.6-0.3-1.2-0.4-1.9c-0.2-1.2-0.4-2.9-0.5-5.1c-0.7-11.3,1.2-22.6,5.5-33.1
		c0.8-2,1.5-3.6,2.1-4.7C269.2,329.6,269.5,329,269.9,328.5z"/>
	<path class="st1" d="M191.2,323.1c0.2,0.1,0.4,0.2,0.6,0.4l1.6,1.1c0.4,0.2,0.7,0.5,1.1,0.8s0.8,0.7,1.2,1.1c1,0.9,2,1.8,2.9,2.9
		l1.6,1.8c0.5,0.6,1,1.3,1.6,2l0.8,1.1c0.3,0.4,0.5,0.8,0.8,1.2c0.5,0.8,1,1.6,1.5,2.5c2.1,3.8,3.8,7.8,5.3,11.9
		c1.6,4.3,2.7,8.6,3.8,12.4l2.7,10.2c0.8,2.9,1.4,5.3,1.9,6.9c0.2,0.8,0.4,1.4,0.5,1.9c0.1,0.2,0.1,0.4,0.1,0.7
		c-0.1-0.2-0.2-0.4-0.2-0.6c-0.1-0.5-0.4-1.1-0.6-1.8c-0.5-1.6-1.2-3.9-2.1-6.8l-2.8-10.2c-1.1-3.8-2.3-8.1-3.8-12.4
		c-1.4-4.1-3.1-8-5.2-11.8c-0.5-0.9-1-1.7-1.5-2.5c-0.2-0.4-0.5-0.8-0.7-1.2l-0.8-1.1c-0.5-0.7-1-1.4-1.5-2l-1.6-1.8
		c-0.9-1-1.8-2-2.8-2.9c-0.4-0.4-0.8-0.8-1.2-1.1l-1.1-0.9l-1.5-1.2C191.5,323.4,191.4,323.2,191.2,323.1z"/>
	<path class="st4" d="M214.9,329.1c7.5,4.9,15.7,6.1,24.5,7.8c5.1,1,10.4,1.9,15.3,0.4c10.6-3.1,20.9-15.2,27.7-19.5l-28.5,7.2
		L214.9,329.1z"/>
</g>
<g id="freepik--speech-bubble--inject-192">
	<circle class="st9" cx="116.7" cy="145.6" r="43.3"/>
	<circle class="st0" cx="116.7" cy="145.6" r="43.5"/>
	<path class="st2" d="M161.5,167.3c0,0-0.5,0.1-1.2,0.5c-1,0.6-1.8,1.5-2.3,2.6c-0.3,0.7-0.5,1.5-0.5,2.3c0,0.9,0.3,1.8,0.8,2.6
		c1.5,2.5,4.7,3.3,7.1,1.8c1.3-0.8,2.2-2.1,2.4-3.5c0.2-0.9,0.1-1.8-0.2-2.7c-0.3-0.8-0.7-1.4-1.3-2c-0.8-0.8-1.9-1.4-3.1-1.6
		c-0.8-0.1-1.3,0-1.3-0.1l0.3-0.1c0.1,0,0.3,0,0.4,0c0.2,0,0.4,0,0.6,0c2.1,0.2,3.9,1.6,4.7,3.6c0.4,0.9,0.4,1.9,0.2,2.9
		c-0.2,1.1-0.7,2-1.5,2.8c-1.6,1.8-4.2,2.3-6.4,1.2c-1-0.5-1.8-1.2-2.4-2.1c-0.5-0.8-0.8-1.8-0.8-2.8c0-0.9,0.2-1.7,0.6-2.4
		c0.5-1.1,1.4-2,2.5-2.6c0.2-0.1,0.3-0.2,0.5-0.2c0.1-0.1,0.3-0.1,0.4-0.1C161.4,167.3,161.5,167.3,161.5,167.3z"/>
	<path class="st2" d="M160.2,143.6c0,0,0-0.2-0.1-0.7s-0.1-1.2-0.2-2.1c0-0.5-0.1-1-0.2-1.5s-0.2-1.2-0.4-1.8s-0.3-1.4-0.4-2.1
		c-0.1-0.4-0.2-0.8-0.3-1.1c-0.1-0.4-0.2-0.8-0.4-1.2c-1.2-4-3-7.9-5.3-11.3c-3.1-4.6-7-8.7-11.6-11.8l-1.9-1.3
		c-0.7-0.4-1.4-0.8-2.1-1.2l-1.1-0.6c-0.4-0.2-0.7-0.4-1.1-0.5l-2.3-1c-0.4-0.2-0.8-0.3-1.2-0.5l-1.2-0.4l-2.5-0.8
		c-0.8-0.2-1.7-0.4-2.6-0.6l-1.3-0.3c-0.2,0-0.4-0.1-0.7-0.1l-0.7-0.1c-1.8-0.3-3.7-0.4-5.5-0.4c-0.9,0-1.9,0-2.8,0l-2.9,0.3
		c-0.5,0.1-1,0.1-1.4,0.2l-1.4,0.3c-1,0.2-1.9,0.4-2.9,0.6c-1.9,0.5-3.8,1.2-5.7,2l-1.4,0.6l-0.7,0.3l-0.7,0.4l-2.7,1.5
		c-0.9,0.5-1.8,1.2-2.6,1.7c-0.4,0.3-0.9,0.6-1.3,0.9l-1.2,1c-1.7,1.4-3.3,2.8-4.7,4.4l-2.1,2.5l-0.5,0.6c-0.2,0.2-0.3,0.4-0.5,0.7
		l-0.9,1.4l-0.9,1.4l-0.8,1.5l-0.8,1.5l-0.4,0.7c-0.1,0.3-0.2,0.5-0.3,0.8c-0.4,1-0.9,2.1-1.3,3.1s-0.7,2.2-1,3.3
		c-2.6,9-2.1,18.6,1.3,27.4l1.3,3.2c0.5,1,1.1,2,1.6,3l0.4,0.7l0.5,0.7l0.9,1.4l0.9,1.4l1.1,1.3l1.1,1.3l0.5,0.6l0.6,0.6l2.3,2.3
		c1.6,1.4,3.3,2.7,5.1,3.9l1.3,0.9c0.4,0.3,0.9,0.5,1.4,0.8c0.9,0.5,1.8,1,2.8,1.5l2.9,1.2l0.7,0.3c0.2,0.1,0.5,0.2,0.7,0.2l1.5,0.5
		c1.9,0.6,3.9,1.1,5.9,1.4c1,0.1,2,0.2,2.9,0.3l1.5,0.1c0.5,0,1,0,1.4,0h2.9c1,0,1.9-0.2,2.8-0.2c1.8-0.2,3.7-0.5,5.5-0.9l0.7-0.1
		l0.7-0.2l1.3-0.4c0.8-0.3,1.7-0.5,2.5-0.8l2.4-1l1.2-0.5l1.1-0.6l2.2-1.2c0.3-0.2,0.7-0.4,1-0.6l1-0.7c0.7-0.5,1.3-0.9,2-1.4
		l1.8-1.5c4.3-3.6,7.9-7.9,10.5-12.8c0.3-0.5,0.6-1.1,0.9-1.6l0.7-1.6c0.2-0.5,0.4-1,0.7-1.5c0.1-0.2,0.2-0.5,0.3-0.8l0.2-0.8
		c0.3-1,0.6-2,0.9-2.9s0.4-1.8,0.6-2.7c0.1-0.4,0.2-0.8,0.3-1.2c0.1-0.4,0.2-0.8,0.2-1.2c0.1-0.8,0.2-1.5,0.2-2.1
		c0.1-0.7,0.2-1.3,0.2-1.8s0-1.1,0-1.5c0-0.9,0-1.6,0-2.1S160.2,143.5,160.2,143.6c0,0,0,0.2,0,0.7s0,1.2,0,2.1c0,0.5,0,1,0,1.5
		s-0.1,1.2-0.2,1.8s-0.1,1.4-0.2,2.1c0,0.4-0.1,0.8-0.2,1.2c-0.1,0.4-0.2,0.8-0.2,1.2c-0.2,0.8-0.3,1.8-0.6,2.7s-0.6,1.9-0.9,2.9
		c-0.1,0.2-0.1,0.5-0.2,0.8s-0.2,0.5-0.3,0.8c-0.2,0.5-0.4,1-0.7,1.6c-0.2,0.5-0.4,1.1-0.7,1.6s-0.6,1.1-0.9,1.6
		c-2.6,4.9-6.2,9.3-10.5,12.9l-1.8,1.5c-0.6,0.5-1.3,0.9-2,1.4l-1,0.7c-0.3,0.2-0.7,0.5-1.1,0.6l-2.2,1.2l-1.1,0.6l-1.2,0.5l-2.4,1
		c-0.8,0.3-1.7,0.5-2.5,0.8l-1.3,0.4l-0.7,0.2l-0.7,0.1c-1.8,0.4-3.6,0.7-5.5,0.9c-0.9,0.1-1.9,0.2-2.8,0.2h-2.9c-0.5,0-1,0-1.5,0
		l-1.5-0.1c-1-0.1-2-0.2-3-0.3c-2-0.3-4-0.8-5.9-1.4l-1.5-0.5c-0.2-0.1-0.5-0.1-0.7-0.2l-0.7-0.3l-2.9-1.2c-1-0.5-1.9-1-2.8-1.5
		c-0.5-0.3-1-0.5-1.4-0.8l-1.3-0.9c-1.8-1.2-3.5-2.6-5.2-4l-2.3-2.4l-0.5-0.5l-0.5-0.6l-1.1-1.4l-1.1-1.3l-1-1.4l-1-1.4l-0.5-0.7
		l-0.4-0.8l-1.6-3c-0.4-1.1-0.9-2.1-1.3-3.2c-3.4-8.8-3.9-18.5-1.3-27.6c0.3-1.1,0.7-2.2,1-3.3l1.3-3.2c0.1-0.3,0.2-0.5,0.3-0.8
		l0.4-0.8l0.8-1.5l0.8-1.5l0.9-1.4l0.9-1.4c0.2-0.2,0.3-0.5,0.5-0.7l0.5-0.6l2.1-2.6c1.5-1.6,3.1-3.1,4.8-4.4l1.2-1
		c0.4-0.3,0.9-0.6,1.3-0.9c0.9-0.6,1.8-1.2,2.7-1.8l2.9-1.5l0.7-0.4c0.2-0.1,0.5-0.2,0.7-0.3l1.4-0.6c1.9-0.8,3.8-1.5,5.8-2
		c1-0.2,1.9-0.4,2.9-0.6l1.4-0.3c0.5-0.1,1-0.1,1.4-0.2l2.9-0.3c1-0.1,1.9,0,2.8,0c1.9,0,3.7,0.1,5.6,0.4l0.7,0.1
		c0.2,0,0.4,0.1,0.7,0.1l1.3,0.3c0.9,0.2,1.8,0.3,2.6,0.6l2.5,0.8l1.2,0.4l1.2,0.5l2.3,1c0.4,0.2,0.8,0.3,1.1,0.6l1.1,0.6
		c0.7,0.4,1.4,0.8,2.1,1.2l1.9,1.3c4.6,3.2,8.6,7.2,11.6,11.9c2.3,3.5,4.1,7.4,5.3,11.4c0.1,0.4,0.2,0.8,0.4,1.2
		c0.1,0.4,0.2,0.8,0.3,1.1c0.1,0.8,0.3,1.5,0.4,2.1s0.3,1.2,0.3,1.8s0.1,1.1,0.1,1.5c0.1,0.9,0.1,1.6,0.2,2.1
		C160.2,143.3,160.2,143.6,160.2,143.6z"/>
	<path class="st4" d="M132.6,141.6c0-8.8-7.1-15.9-15.9-16s-15.9,7.1-16,15.9c0,6.2,3.5,11.8,9.1,14.4v4h13.9c0,0,0.1-2.2,0.1-4.3
		C129.3,153,132.6,147.6,132.6,141.6z"/>
	<path class="st2" d="M118.8,160c0,0,0-0.1,0-0.2s0-0.3,0.1-0.6c0.1-0.5,0.2-1.2,0.3-2.2s0.3-2.1,0.6-3.5c0.3-1.5,0.8-3,1.4-4.4
		c0.4-0.8,0.8-1.6,1.3-2.4c0.3-0.4,0.6-0.8,1.1-1c0.5-0.2,1-0.2,1.5,0c0.2,0.1,0.4,0.4,0.5,0.6c0.1,0.3,0.1,0.6-0.1,0.8
		c-0.3,0.5-0.7,0.9-1.2,1.1c-1.1,0.4-2.3,0.3-3.3-0.2c-1.1-0.5-1.9-1.5-2.2-2.6c-0.2-0.6-0.2-1.2-0.1-1.8c0.2-0.7,0.8-1.1,1.4-1.1
		c0.3,0,0.7,0.2,0.8,0.6c0.2,0.3,0.2,0.7,0.1,1c-0.2,0.6-0.6,1.2-1.1,1.6c-1,0.9-2.4,1.3-3.7,1.1c-1.3-0.2-2.5-1.1-3.1-2.3
		c-0.3-0.6-0.3-1.3-0.1-1.9c0.2-0.6,0.9-0.9,1.5-0.7c0.1,0,0.1,0.1,0.2,0.1c0.3,0.2,0.5,0.4,0.7,0.7c0.1,0.3,0.2,0.6,0.2,0.9
		c0,0.6,0,1.2-0.2,1.8c-0.4,1.1-1.2,2.1-2.2,2.7c-1,0.5-2.2,0.7-3.3,0.4c-0.5-0.1-1.1-0.4-1.4-0.8c-0.4-0.4-0.4-1.1-0.1-1.5
		c0.2-0.2,0.4-0.3,0.7-0.4c0.3,0,0.5,0,0.8,0.1c0.4,0.2,0.8,0.6,1,1.1c0.4,0.9,0.7,1.7,1,2.5c1.3,3.2,2.2,5.9,2.8,7.7
		c0.3,0.9,0.5,1.6,0.7,2.1c0.1,0.2,0.1,0.4,0.2,0.6s0,0.2,0,0.2c0-0.1-0.1-0.1-0.1-0.2c0-0.1-0.1-0.3-0.2-0.6
		c-0.2-0.5-0.4-1.2-0.7-2.1c-0.6-1.8-1.5-4.4-2.8-7.6c-0.3-0.8-0.7-1.6-1.1-2.5c-0.2-0.4-0.5-0.8-0.9-1c-0.5-0.2-1.1,0.1-1.3,0.6
		c-0.1,0.3-0.1,0.6,0.1,0.9c0.4,0.4,0.8,0.6,1.3,0.7c1.1,0.2,2.2,0.1,3.2-0.4c1-0.6,1.8-1.5,2.2-2.6c0.2-0.6,0.3-1.2,0.2-1.7
		c0-0.6-0.3-1.1-0.8-1.5c-0.3-0.1-0.6-0.2-0.8-0.1c-0.3,0.1-0.5,0.3-0.6,0.6c-0.2,0.6-0.2,1.2,0.1,1.8c0.6,1.2,1.7,2,2.9,2.2
		c1.3,0.2,2.6-0.2,3.6-1c0.5-0.4,1-0.9,1.2-1.5c0.1-0.3,0-0.6-0.1-0.9c-0.1-0.3-0.4-0.4-0.7-0.5c-0.3,0-0.6,0.1-0.8,0.2
		c-0.2,0.2-0.4,0.4-0.4,0.7c-0.1,0.6-0.1,1.2,0.1,1.7c0.3,1.1,1.1,2,2.1,2.6c1,0.5,2.1,0.6,3.2,0.2c0.5-0.2,0.9-0.5,1.1-1
		c0.2-0.4,0.1-1-0.4-1.2c-0.4-0.2-0.9-0.3-1.4-0.1c-0.4,0.2-0.7,0.5-1,0.9c-0.5,0.7-0.9,1.5-1.3,2.3c-0.6,1.4-1.1,2.9-1.5,4.4
		c-0.3,1.3-0.5,2.5-0.7,3.4s-0.2,1.7-0.3,2.2l-0.1,0.6L118.8,160z"/>
	<path class="st2" d="M122.8,162.6h-12c-0.5,0-0.9-0.4-0.9-0.9c0,0,0,0,0,0l0,0c0-0.5,0.4-0.9,0.9-0.9h12c0.5,0,0.9,0.4,0.9,0.9l0,0
		C123.7,162.2,123.3,162.6,122.8,162.6C122.8,162.6,122.8,162.6,122.8,162.6z"/>
	<path class="st2" d="M122.8,163.4h-12c-0.5-0.1-0.9,0.3-1,0.8c-0.1,0.5,0.3,0.9,0.8,1c0.1,0,0.1,0,0.2,0h1.3l1.7,3.3
		c0.2,0.4,0.6,0.6,1,0.6h4.3c0.4,0,0.8-0.3,1-0.6l1.7-3.3h0.9c0.5,0.1,0.9-0.3,1-0.8C123.7,163.9,123.4,163.5,122.8,163.4
		c0,0,0,0-0.1,0H122.8z"/>
	<g class="st10">
		<path class="st0" d="M106.5,131.5c0.9-0.9,2-1.6,3.2-2.1c0.8-0.4,1.6-0.6,2.5-0.7c0.6-0.1,0.9,0,1,0.1c0.1,0.3-1.1,0.7-2.8,1.8
			c-4.4,2.7-6.7,7.8-6,12.8c0.2,1.9,0.7,3.1,0.4,3.3c-0.1,0.1-0.4-0.2-0.7-0.7c-0.4-0.7-0.8-1.5-1-2.3c-0.4-1.2-0.5-2.5-0.4-3.8
			c0.1-1.6,0.5-3.2,1.1-4.6"/>
	</g>
	<g class="st10">
		<path class="st0" d="M116.9,129.5c-1,0-1.9-0.3-2-0.8c0-0.3,0.1-0.5,0.5-0.8c0.5-0.3,1-0.4,1.5-0.4c0.5,0,1,0.1,1.5,0.4
			c0.4,0.2,0.6,0.5,0.5,0.8"/>
	</g>
	<path class="st1" d="M120,168.8c-0.3-0.1-0.6-0.1-0.8-0.2c-0.6-0.2-1.3-0.3-2-0.2c-0.7,0-1.4,0.1-2,0.4c-0.5,0.2-0.8,0.3-0.8,0.3
		c0.2-0.2,0.5-0.3,0.8-0.4c1.3-0.5,2.8-0.6,4.1-0.1C119.5,168.5,119.8,168.6,120,168.8z"/>
	<path class="st1" d="M121.9,165.2c0,0.1-2.2,0.1-4.8,0.1s-4.8,0-4.8-0.1s2.2-0.1,4.8-0.1S121.9,165.2,121.9,165.2z"/>
	<path class="st1" d="M121.2,166.7c-0.4,0.1-0.8,0.1-1.2,0.1c-0.7,0.1-1.7,0.1-2.8,0.1s-2.1,0-2.9,0c-0.4,0-0.8,0-1.2-0.1
		c0.4,0,0.8-0.1,1.2-0.1h2.8h2.8C120.4,166.7,120.8,166.7,121.2,166.7z"/>
</g>
<g id="freepik--Screen--inject-192">
	<path d="M356.9,165.5h-1.4h-4l-15.4,0.1l-56.3,0.1h-0.2v-0.2c0-23.5,0-51.8,0-82.9v-0.2h60.4h81.9h0.2v0.2c0,32.4,0,60.7-0.1,82.9
		v0.2h-0.2l-40.7-0.1h-10.9h-2.8h-1h1h2.8l10.9-0.1l40.7-0.1l-0.2,0.2c0-22.2,0-50.6-0.1-82.9l0.2,0.2H279.9l0.2-0.2
		c0,31.2,0,59.5-0.1,82.9l-0.2-0.2l56.3,0.1h15.4h4L356.9,165.5z"/>
	<polyline class="st0" points="366.5,165.5 421.9,165.5 421.9,82.6 279.9,82.6 279.9,165.5 356.9,165.5 	"/>
	<polygon points="422.4,166 366.5,166 366.5,165 421.4,165 421.4,83.1 280.4,83.1 280.4,165 356.9,165 356.9,166 279.4,166 
		279.4,82.1 422.4,82.1 	"/>
	<rect x="279.9" y="82.6" class="st11" width="142.1" height="6.1"/>
	<path d="M422.4,89.2H279.4v-7.1h143.1V89.2z M280.4,88.2h141.1v-5.1H280.4L280.4,88.2z"/>
	<path class="st2" d="M284.2,85.7c0,0.4-0.4,0.8-0.8,0.8c-0.4,0-0.8-0.4-0.8-0.8s0.4-0.8,0.8-0.8C283.8,84.9,284.2,85.3,284.2,85.7z
		"/>
	<path d="M283.4,87c-0.7,0-1.3-0.6-1.3-1.3c0-0.7,0.6-1.3,1.3-1.3c0.7,0,1.3,0.6,1.3,1.3c0,0,0,0,0,0C284.7,86.4,284.1,87,283.4,87z
		 M283.4,85.4c-0.2,0-0.3,0.1-0.3,0.3s0.1,0.3,0.3,0.3s0.3-0.1,0.3-0.3v0C283.7,85.6,283.5,85.4,283.4,85.4L283.4,85.4z"/>
	<path class="st2" d="M287.1,85.7c0,0.4-0.4,0.8-0.8,0.8c0,0,0,0,0,0c-0.4,0-0.8-0.4-0.8-0.8v0c0-0.4,0.3-0.8,0.8-0.8c0,0,0,0,0,0
		C286.8,84.9,287.1,85.3,287.1,85.7z"/>
	<path d="M286.3,87c-0.7,0-1.3-0.6-1.3-1.3c0-0.7,0.6-1.3,1.3-1.3c0.7,0,1.3,0.6,1.3,1.3c0,0,0,0,0,0C287.6,86.4,287.1,87,286.3,87
		C286.3,87,286.3,87,286.3,87z M286.3,85.4c-0.2,0-0.3,0.1-0.3,0.3s0.1,0.3,0.3,0.3s0.3-0.1,0.3-0.3v0
		C286.6,85.6,286.5,85.4,286.3,85.4L286.3,85.4z"/>
	<path class="st2" d="M290.1,85.7c0,0.4-0.4,0.8-0.8,0.8l0,0c-0.4,0-0.8-0.3-0.8-0.8c0,0,0,0,0,0c0-0.4,0.4-0.8,0.8-0.8
		C289.7,84.9,290.1,85.3,290.1,85.7C290.1,85.7,290.1,85.7,290.1,85.7z"/>
	<path d="M289.3,87c-0.7,0-1.3-0.6-1.3-1.3s0.6-1.3,1.3-1.3c0.7,0,1.3,0.6,1.3,1.3c0,0,0,0,0,0C290.6,86.4,290,87,289.3,87z
		 M289.3,85.4c-0.2,0-0.3,0.1-0.3,0.2c0,0.2,0.1,0.3,0.2,0.3c0,0,0.1,0,0.1,0c0.2,0,0.3-0.2,0.2-0.3
		C289.5,85.5,289.4,85.4,289.3,85.4z"/>
	<path class="st2" d="M351.1,95.8c0,0-2.8,0.1-6.3,0.1s-6.3,0-6.3-0.1s2.8-0.1,6.3-0.1S351.1,95.7,351.1,95.8z"/>
	<path d="M344.8,96.3c-3.7,0-5.4,0-6.1-0.1l0,0c-0.6-0.1-0.6-0.2-0.6-0.5s0-0.4,0.6-0.5l0,0c0.8-0.1,2.4-0.1,6.1-0.1s5.4,0,6.1,0.1
		l0,0c0.6,0.1,0.6,0.2,0.6,0.5s0,0.4-0.6,0.5l0,0C350.2,96.3,348.5,96.3,344.8,96.3z"/>
	<path class="st2" d="M367.8,95.8c0,0-2.8,0.1-6.3,0.1s-6.3,0-6.3-0.1s2.8-0.1,6.3-0.1S367.8,95.7,367.8,95.8z"/>
	<path d="M361.5,96.3c-3.7,0-5.4,0-6.1-0.1l0,0c-0.6-0.1-0.6-0.2-0.6-0.5s0-0.4,0.6-0.5l0,0c0.8-0.1,2.4-0.1,6.1-0.1s5.4,0,6.1,0.1
		l0,0c0.6,0.1,0.6,0.2,0.6,0.5s0,0.4-0.6,0.5l0,0C366.9,96.3,365.2,96.3,361.5,96.3z"/>
	<path class="st2" d="M384.4,95.8c0,0-2.8,0.1-6.3,0.1s-6.3,0-6.3-0.1s2.8-0.1,6.3-0.1S384.4,95.7,384.4,95.8z"/>
	<path d="M378.1,96.3c-3.7,0-5.4,0-6.1-0.1l0,0c-0.6-0.1-0.6-0.2-0.6-0.5s0-0.4,0.6-0.5l0,0c0.8-0.1,2.4-0.1,6.1-0.1s5.4,0,6.1,0.1
		l0,0c0.6,0.1,0.6,0.2,0.6,0.5s0,0.4-0.6,0.5l0,0C383.5,96.3,381.9,96.3,378.1,96.3z"/>
	<path class="st2" d="M401.2,95.8c0,0-2.8,0.1-6.3,0.1s-6.3,0-6.3-0.1s2.8-0.1,6.3-0.1S401.2,95.7,401.2,95.8z"/>
	<path d="M395,96.3c-3.7,0-5.4,0-6.1-0.1l0,0c-0.6-0.1-0.6-0.2-0.6-0.5s0-0.4,0.6-0.5l0,0c0.8-0.1,2.4-0.1,6.1-0.1s5.4,0,6.1,0.1
		l0,0c0.6,0.1,0.6,0.2,0.6,0.5s0,0.4-0.6,0.5l0,0C400.4,96.3,398.7,96.3,395,96.3z"/>
	<path class="st2" d="M409.4,139.3c0,0-13.6,0.1-30.4,0.1s-30.4,0-30.4-0.1s13.6-0.1,30.4-0.1S409.4,139.2,409.4,139.3z"/>
	<path d="M379,139.9c-8.4,0-16,0-21.5,0H351c-1.1,0-1.8,0-2.2,0h-0.1l0,0c-0.6,0-0.6-0.2-0.6-0.5s0-0.4,0.6-0.5l0,0h0.1
		c0.4,0,1.1,0,2.2-0.1h6.5c5.5,0,13.1,0,21.5,0s16,0,21.5,0h6.5c1.1,0,1.8,0,2.2,0.1h0.1l0,0c0.6,0.1,0.6,0.2,0.6,0.5s0,0.4-0.6,0.5
		l0,0h-0.1c-0.4,0-1.1,0-2.2,0h-6.5C395,139.9,387.4,139.9,379,139.9z"/>
	<path class="st6" d="M409.1,148.5c0,0.1-13.6,0.1-30.4,0.1s-30.4,0-30.4-0.1s13.6-0.1,30.4-0.1S409.1,148.5,409.1,148.5z"/>
	<path d="M378.7,149.1c-8.4,0-16,0-21.5,0h-6.5c-1.1,0-1.8,0-2.2,0h-0.1l0,0c-0.6-0.1-0.6-0.2-0.6-0.5s0-0.4,0.6-0.5h0.1
		c0.4,0,1.1,0,2.2,0h6.5h21.5h21.5h6.5c1.1,0,1.8,0,2.2,0h0.1c0.5,0.1,0.5,0.2,0.5,0.5s0,0.4-0.5,0.5l0,0h-0.1c-0.4,0-1.1,0-2.2,0
		h-6.5C394.7,149.1,387.1,149.1,378.7,149.1z"/>
	<path class="st6" d="M409.1,151c0,0-13.6,0.1-30.4,0.1s-30.4,0-30.4-0.1s13.6-0.1,30.4-0.1S409.1,150.9,409.1,151z"/>
	<path d="M378.7,151.6c-8.4,0-16,0-21.5,0h-6.5c-1.1,0-1.8,0-2.2,0h-0.1l0,0c-0.6,0-0.6-0.2-0.6-0.5s0-0.4,0.6-0.5l0,0h0.1
		c0.4,0,1.1,0,2.2-0.1h6.5c5.5,0,13.1,0,21.5,0s16,0,21.5,0h6.5c1.1,0,1.8,0,2.2,0.1h0.1l0,0c0.5,0.1,0.5,0.2,0.5,0.5s0,0.4-0.5,0.5
		l0,0h-0.1c-0.4,0-1.1,0-2.2,0h-6.5C394.7,151.6,387.1,151.6,378.7,151.6z"/>
	<path class="st2" d="M379.4,142.5c0,0-6.9,0.1-15.4,0.1s-15.4,0-15.4-0.1s6.9-0.1,15.4-0.1S379.4,142.4,379.4,142.5z"/>
	<path d="M364,143.1c-4.2,0-8.1,0-10.9,0c-2.3,0-3.5,0-4.2-0.1h-0.2l0,0c-0.6-0.1-0.6-0.2-0.6-0.5s0-0.4,0.6-0.5l0,0h0.2
		c0.7-0.1,1.9-0.1,4.2-0.1c2.8,0,6.6,0,10.9,0s8.1,0,10.9,0c2.3,0,3.5,0,4.2,0.1h0.2l0,0c0.6,0.1,0.6,0.2,0.6,0.5s0,0.4-0.6,0.5l0,0
		h-0.2c-0.7,0.1-1.9,0.1-4.2,0.1C372.1,143.1,368.3,143.1,364,143.1z"/>
	<path class="st2" d="M415.8,97.8c0.1,0,0.2,0,0.3,0c0.3-0.1,0.5-0.2,0.7-0.4c0.1-0.2,0.2-0.3,0.3-0.5c0-0.2,0-0.5,0-0.7
		c0-0.5,0.1-1.2-0.4-1.7c-0.2-0.3-0.5-0.4-0.9-0.4c-0.4,0-0.8,0-1.1,0h-8.4c-0.5,0-0.9,0.3-1.2,0.7c-0.1,0.2-0.2,0.5-0.1,0.7V96
		c0,0.2,0,0.5,0,0.7c0.1,0.2,0.2,0.4,0.3,0.6c0.2,0.2,0.3,0.3,0.5,0.3c0.2,0.1,0.4,0.1,0.7,0.1h4.8h3.2h0.9L415.8,97.8
		c0-0.1,0-0.1-0.1-0.1h-0.2h-0.9h-3.2h-4.8c-0.2,0-0.5,0-0.7-0.1c-0.2-0.1-0.5-0.2-0.6-0.4c-0.2-0.2-0.3-0.4-0.4-0.7
		c0-0.1,0-0.3,0-0.4v-1.1c0-0.3,0-0.5,0.2-0.8c0.3-0.5,0.8-0.8,1.3-0.8h9.5c0.4,0,0.7,0.2,1,0.5c0.2,0.3,0.4,0.6,0.4,0.9
		c0,0.3,0,0.6,0,0.9c0,0.3,0,0.5-0.1,0.8c-0.1,0.2-0.2,0.4-0.3,0.6c-0.2,0.2-0.5,0.4-0.8,0.4C416,97.6,415.9,97.7,415.8,97.8z"/>
	<path d="M406.5,98.3c-0.2,0-0.5,0-0.7-0.1c-0.3-0.1-0.6-0.3-0.8-0.5c-0.2-0.2-0.4-0.5-0.5-0.9c0-0.2-0.1-0.3-0.1-0.5v-1.1
		c0-1.1,0.8-2,1.9-2.1c0,0,0,0,0.1,0h9.6c0.5,0,1,0.3,1.3,0.7c0.3,0.3,0.5,0.8,0.5,1.2v1c0,0.3,0,0.5-0.1,0.8
		c-0.1,0.3-0.2,0.5-0.4,0.8c-0.2,0.3-0.6,0.5-0.9,0.6l0,0h-0.1c-0.1,0-0.2,0-0.3,0h-2h-7.2L406.5,98.3z M406.6,97.2l9.2,0.1h0.2
		c0.2,0,0.3-0.1,0.5-0.3c0.1-0.1,0.1-0.2,0.2-0.3c0-0.2,0-0.3,0-0.5V96c0-0.1,0-0.2,0-0.4c0-0.4,0-0.8-0.2-1
		c-0.1-0.2-0.3-0.3-0.6-0.3c-0.2,0-0.4,0-0.7,0h-8.8c-0.3,0-0.6,0.2-0.7,0.4c-0.1,0.1-0.1,0.3-0.1,0.5v0.9c0,0.1,0,0.3,0,0.4
		c0,0.1,0.1,0.3,0.2,0.4c0.1,0.1,0.2,0.2,0.3,0.2C406.2,97.2,406.4,97.2,406.6,97.2z"/>
	<rect x="293.8" y="112" class="st1" width="40.6" height="39.3"/>
	<path d="M334.8,151.8h-41.6v-40.3h41.6L334.8,151.8z M294.3,150.8h39.6v-38.3h-39.6V150.8z"/>
	<g class="st3">
		<polygon points="296.9,147.9 308.1,127.7 317.3,140.6 322.9,133.7 331.2,147.9 		"/>
		<path d="M332.1,148.4h-36l12-21.6l9.3,13l5.6-6.9L332.1,148.4z M297.8,147.4h32.6l-7.5-12.8l-5.5,6.8l-9.1-12.8L297.8,147.4z"/>
	</g>
	<g class="st3">
		<path d="M321.2,123.8c0,1.6-1.3,2.9-2.9,2.9c-1.6,0-2.9-1.3-2.9-2.9s1.3-2.9,2.9-2.9S321.2,122.1,321.2,123.8L321.2,123.8z"/>
		<path d="M318.3,127.2c-1.9,0-3.4-1.5-3.4-3.4s1.5-3.4,3.4-3.4c1.9,0,3.4,1.5,3.4,3.4C321.7,125.6,320.2,127.2,318.3,127.2z
			 M318.3,121.3c-1.3,0-2.4,1.1-2.4,2.4s1.1,2.4,2.4,2.4c1.3,0,2.4-1.1,2.4-2.4C320.7,122.4,319.6,121.3,318.3,121.3L318.3,121.3z"
			/>
	</g>
	<g class="st3">
		<path d="M331.2,115.1h-34.3c-0.1,0.1-0.1,0.1-0.2,0.2l0,0v8.8c0,2.9,0,5.7,0,8.5c0,5.5,0,10.7,0,15.5v0.2h0.2l24.9-0.1h7h1.8l0,0
			h-1.9h-7l-24.6-0.1c0-4.7,0-9.9,0-15.3v-8.5c0-1.4,0-2.9,0-4.4v-4.3h33.9c0,9.7,0.1,17.8,0.1,23.5c0,2.9,0,5.1,0,6.7
			c0,0.8,0,1.4,0,1.8c0,0.2,0,0.3,0,0.5s0,0.2,0,0.2s0-0.1,0-0.1v-0.4c0-0.4,0-1,0-1.7c0-1.6,0-3.8,0-6.6c0-5.8,0-14,0.1-23.8v-0.2
			L331.2,115.1z"/>
		<path d="M296.2,148.7v-33.1h-0.4l0.2-0.2l0,0l0.3-0.4c0.1-0.1,0.2-0.2,0.3-0.3l0.6-0.5v0.4h34.7v6.6l-0.1,26.7l0.1,0.1l-0.1,0.3
			c0,0.1-0.1,0.2-0.2,0.2l-0.1,0.1l-0.3,0.1l-0.1-0.1h-3.7h-5.5L296.2,148.7z M297.6,147.3l33.1,0.1v-1.9v-6.7l-0.1-23h-32.9
			L297.6,147.3z"/>
	</g>
	<circle class="st1" cx="291.2" cy="95.8" r="2.7"/>
	<path d="M291.2,99c-1.8,0-3.2-1.4-3.2-3.2c0-1.8,1.4-3.2,3.2-3.2c1.8,0,3.2,1.4,3.2,3.2v0C294.4,97.6,293,99,291.2,99z M291.2,93.6
		c-1.2,0-2.2,1-2.2,2.2s1,2.2,2.2,2.2s2.2-1,2.2-2.2c0,0,0,0,0,0C293.4,94.6,292.5,93.6,291.2,93.6
		C291.2,93.6,291.2,93.6,291.2,93.6L291.2,93.6z"/>
	<path d="M380.4,124.4c0,0.2-6.8,0.3-15.3,0.3s-15.3-0.1-15.3-0.3s6.8-0.3,15.3-0.3S380.4,124.3,380.4,124.4z"/>
</g>
<g id="freepik--Video--inject-192">
	<path class="st9" d="M159.5,243.3l-36.7-8.7c-1.3-0.5-2-1.8-1.7-3.2l6-23.9c0.3-1.3,1.5-2.3,2.9-2.1l36.7,8.9
		c1.3,0.3,1.6,1.6,1.3,2.9l-6.3,24.7C161.5,243,160.5,243.6,159.5,243.3z"/>
	<path class="st1" d="M159.2,243.2c0.5,0.1,0.9,0,1.4-0.1c0.5-0.2,1-0.6,1.2-1.1c0.2-0.3,0.3-0.7,0.3-1c0.1-0.4,0.2-0.8,0.3-1.2
		c0.9-3.5,2.1-8.4,3.6-14.6c0.4-1.5,0.8-3.1,1.2-4.8l0.6-2.6c0.1-0.4,0.2-0.9,0.3-1.3c0-0.4-0.1-0.8-0.3-1.2
		c-0.2-0.4-0.6-0.7-0.9-0.9c-0.4-0.1-0.9-0.3-1.4-0.4l-2.9-0.7l-6-1.4l-26.5-6.3c-1.1-0.2-2.2,0.4-2.6,1.5c-0.3,1.1-0.6,2.3-0.9,3.4
		c-0.6,2.3-1.1,4.5-1.7,6.7l-3.2,12.7c-0.1,0.5-0.2,1-0.4,1.5c-0.1,0.5-0.1,0.9,0,1.4c0.1,0.4,0.4,0.8,0.8,1.1
		c0.4,0.2,0.9,0.4,1.3,0.5l5.6,1.3l10.1,2.4l14.6,3.5l4,1l1,0.3L159.2,243.2c-0.1,0-0.2,0-0.4,0l-1-0.2l-4-0.9l-14.6-3.4l-10.1-2.4
		l-5.6-1.3c-0.5-0.1-1-0.3-1.5-0.5c-0.5-0.3-0.8-0.8-1-1.3c-0.2-0.5-0.2-1.1,0-1.6c0.1-0.5,0.2-1,0.4-1.5l3.2-12.7
		c0.6-2.2,1.1-4.4,1.7-6.7c0.3-1.1,0.6-2.3,0.9-3.5c0.4-1.3,1.8-2.1,3.1-1.8l26.5,6.3l6,1.4l2.9,0.7c0.5,0.1,1,0.2,1.4,0.4
		c0.5,0.2,0.9,0.6,1.1,1c0.3,0.4,0.4,0.9,0.4,1.4c-0.1,0.5-0.2,0.9-0.3,1.4c-0.2,0.9-0.4,1.7-0.6,2.6c-0.4,1.7-0.8,3.3-1.2,4.8
		c-1.6,6.1-2.9,11.1-3.7,14.5c-0.1,0.4-0.2,0.8-0.3,1.2c-0.1,0.4-0.2,0.7-0.4,1.1c-0.3,0.5-0.7,0.9-1.3,1.1
		c-0.3,0.1-0.7,0.2-1.1,0.1C159.4,243.3,159.3,243.3,159.2,243.2z"/>
	<polygon class="st1" points="146.8,222.2 151,226.4 145.3,228.1 139.6,229.9 141.1,224 142.6,218.1 	"/>
</g>
<g id="freepik--Device--inject-192">
	<path class="st2" d="M70.8,238.1l28.7-12c3.5-1.4,7.4,0.2,8.9,3.6l30.1,71.9c1.4,3.5-0.2,7.4-3.6,8.9l-28.7,12
		c-3.5,1.4-7.4-0.2-8.9-3.6L67.2,247C65.7,243.5,67.4,239.5,70.8,238.1z"/>
	<path class="st9" d="M100.5,228.6L95,231c-0.8,0.3-1.1,1.2-0.8,2c0,0,0,0,0,0l0.4,1c0.3,0.8,0,1.6-0.7,2c0,0,0,0,0,0L83,240.5
		c-0.8,0.3-1.7,0-2-0.8c0,0,0,0,0,0l-0.4-1c-0.3-0.8-1.2-1.1-1.9-0.8c0,0,0,0,0,0l-2,0.8l-4.9,2c-2.4,1-3.6,3.8-2.5,6.2L98.7,317
		c1,2.4,3.8,3.5,6.2,2.5l28.6-12c2.4-1,3.6-3.8,2.6-6.2l-29.4-70.2C105.6,228.8,102.9,227.7,100.5,228.6z"/>
	<path class="st2" d="M104.4,235.6c0,0-0.7,0.3-1.6,0.7s-1.6,0.7-1.6,0.6s0.7-0.3,1.6-0.7S104.4,235.5,104.4,235.6z"/>
	<path class="st2" d="M104.8,236.4c-0.5,0.3-1,0.5-1.6,0.7c-0.9,0.4-1.6,0.7-1.6,0.7s0.7-0.4,1.6-0.7S104.8,236.4,104.8,236.4z"/>
	<path class="st2" d="M105.1,237.2c0,0-0.7,0.3-1.6,0.7s-1.6,0.7-1.6,0.7s0.7-0.3,1.6-0.7S105.1,237.2,105.1,237.2z"/>
	<path class="st2" d="M76.1,250.5C76.1,250.5,76.1,250.5,76.1,250.5l0.2-0.1l0.7-0.3l0,0l-0.2-0.5c0-0.1-0.1-0.2-0.1-0.3
		c0-0.1,0-0.2,0.1-0.3l0.3-0.1c0.1,0,0.3,0,0.3,0.2l0.3,0.7l0,0l0.9-0.4l0,0l-0.5-1.1l-0.1-0.3c0-0.1-0.1-0.1-0.2-0.1l-0.5-0.2
		l-0.5-0.2l-0.3-0.1c-0.1,0-0.2-0.1-0.2-0.1c-0.1,0-0.1,0.1-0.2,0.1c0,0.1-0.1,0.1-0.1,0.2l-0.2,0.4c-0.1,0.3-0.2,0.6-0.3,0.8
		s0,0.2,0.1,0.3l0.1,0.3L76,250l0.1,0.3C76.2,250.4,76.2,250.4,76.1,250.5c0-0.1,0-0.1,0-0.1l-0.1-0.3c-0.1-0.1-0.1-0.3-0.2-0.5
		l-0.1-0.3l-0.1-0.2c0-0.1,0-0.1,0-0.2c0.1-0.3,0.2-0.5,0.3-0.8l0.2-0.4c0-0.1,0.1-0.2,0.1-0.2c0-0.1,0.1-0.1,0.2-0.1
		c0.1,0,0.2,0,0.3,0.1l0.2,0.1l0.5,0.2l0.5,0.2l0.1,0.1c0,0,0.1,0.1,0.1,0.1l0.1,0.3l0.5,1.1l0,0l0,0l-0.9,0.4l0,0l0,0l-0.3-0.7
		c0-0.1-0.2-0.2-0.3-0.1l-0.3,0.1c-0.1,0-0.1,0.1-0.1,0.2c0,0.1,0.1,0.2,0.1,0.3l0.2,0.5l0,0l0,0l-0.7,0.3l-0.2,0.1L76.1,250.5z"/>
	<path class="st2" d="M107.2,249.1l0.2-0.1c0.2-0.1,0.3-0.2,0.5-0.3c0.2-0.2,0.4-0.4,0.6-0.7c0.2-0.4,0.3-0.8,0.3-1.2
		c0-0.2,0-0.5-0.1-0.7c-0.1-0.3-0.2-0.5-0.3-0.8c-0.1-0.3-0.2-0.5-0.4-0.8c-0.2-0.3-0.4-0.5-0.6-0.7c-0.6-0.4-1.3-0.6-2-0.4
		c-0.4,0.1-0.7,0.2-1.1,0.4l-1.1,0.5c-6.2,2.6-14.7,6.2-24.1,10.1c-0.6,0.2-1,0.7-1.3,1.3c-0.3,0.6-0.3,1.2-0.1,1.8
		c0.1,0.3,0.2,0.6,0.3,0.9c0.1,0.3,0.3,0.5,0.4,0.8c0.4,0.5,0.9,0.8,1.5,0.9c0.3,0.1,0.6,0.1,0.9,0c0.3-0.1,0.6-0.2,0.8-0.3l1.6-0.7
		l3.1-1.3l10.8-4.5l7.3-3l2-0.8l0.5-0.2L107.2,249.1l-0.2,0.1l-0.5,0.2l-2,0.8l-7.3,3.1l-10.8,4.6l-3.1,1.3l-1.6,0.7
		c-0.3,0.1-0.6,0.2-0.8,0.3c-0.3,0.1-0.6,0.1-0.9,0c-0.6-0.1-1.2-0.5-1.6-0.9c-0.2-0.2-0.3-0.5-0.4-0.8c-0.1-0.3-0.2-0.6-0.3-0.9
		c-0.4-1.3,0.2-2.7,1.5-3.2l24.1-10.1l1.1-0.5c0.4-0.2,0.7-0.3,1.1-0.4c0.7-0.1,1.4,0,2,0.4c0.3,0.2,0.5,0.4,0.7,0.7
		c0.1,0.3,0.3,0.5,0.4,0.8c0.1,0.2,0.2,0.5,0.3,0.8c0.1,0.2,0.1,0.5,0.1,0.7c0,0.4-0.1,0.8-0.3,1.2c-0.2,0.3-0.3,0.5-0.6,0.7
		C107.6,248.9,107.4,249,107.2,249.1L107.2,249.1z"/>
	<path class="st2" d="M106.4,246c0,0,0-0.1-0.2-0.2c-0.2-0.2-0.4-0.3-0.6-0.4c-0.4-0.1-0.7,0-1,0.3c-0.4,0.3-0.5,1-0.2,1.4
		c0.2,0.3,0.6,0.5,1,0.4c0.3,0,0.7-0.2,0.8-0.5c0.1-0.2,0.2-0.4,0.2-0.7C106.4,246.1,106.4,246,106.4,246
		C106.4,246,106.4,246,106.4,246c0,0.1,0.1,0.2,0.1,0.3c0,0.2,0,0.5-0.1,0.7c-0.2,0.3-0.5,0.6-0.9,0.6c-0.5,0-0.9-0.3-1.1-0.7
		c-0.2-0.6,0-1.2,0.6-1.5c0.2-0.1,0.5-0.1,0.7,0c0.2,0.1,0.5,0.2,0.6,0.4C106.3,245.8,106.4,245.9,106.4,246
		C106.4,246,106.4,246,106.4,246z"/>
	<path class="st2" d="M107.7,247.5c-0.2,0-0.5-0.1-0.7-0.2c-0.2-0.1-0.4-0.2-0.6-0.4c0.2,0,0.5,0.1,0.7,0.2
		C107.4,247.3,107.7,247.5,107.7,247.5z"/>
	<path class="st2" d="M81.7,255.9l-0.6,0.2V256l1.2-0.5l0.1,0.1l-0.6,0.2l0.6,1.4l-0.2,0.1L81.7,255.9z"/>
	<path class="st2" d="M83.9,256l-1,0.4c0.1,0.2,0.4,0.3,0.6,0.2c0.1-0.1,0.2-0.2,0.3-0.3l0.1,0.1c-0.1,0.2-0.2,0.3-0.4,0.4
		c-0.3,0.2-0.7,0-0.8-0.3c0,0,0,0,0,0c-0.1-0.3,0.1-0.7,0.4-0.8C83.4,255.5,83.8,255.7,83.9,256C83.9,256,83.9,256,83.9,256z
		 M82.9,256.3l0.8-0.4c-0.1-0.2-0.4-0.3-0.6-0.2C82.9,255.8,82.8,256,82.9,256.3C82.9,256.3,82.9,256.3,82.9,256.3L82.9,256.3z"/>
	<path class="st2" d="M85.2,256.1l-0.6-0.3l-0.2,0.6l-0.2,0.1l0.2-0.8l-0.7-0.4l0.2-0.1l0.5,0.3l0.2-0.6l0.2-0.1l-0.2,0.8l0.7,0.4
		L85.2,256.1z"/>
	<path class="st2" d="M86.2,255.6c0,0.1-0.1,0.1-0.2,0.2c-0.2,0.1-0.4,0-0.5-0.1c0,0,0,0,0-0.1l-0.3-0.7L85,255v-0.1l0.2-0.1
		l-0.1-0.3l0.2-0.1l0.1,0.2l0.4-0.1v0.1l-0.3,0.1l0.3,0.7c0,0.1,0.1,0.2,0.2,0.1c0,0,0,0,0,0C86,255.6,86.1,255.6,86.2,255.6
		L86.2,255.6z"/>
	
		<rect x="83.3" y="263.3" transform="matrix(0.9221 -0.3869 0.3869 0.9221 -96.5083 54.4289)" class="st2" width="7.2" height="7.2"/>
	
		<rect x="83.3" y="263.3" transform="matrix(0.9221 -0.3869 0.3869 0.9221 -96.5083 54.4289)" class="st4" width="7.2" height="7.2"/>
	<path class="st2" d="M102,257.5c0,0-2.2,1-5,2.1s-5,2.1-5,2s2.2-1,5-2.1S102,257.5,102,257.5z"/>
	<path class="st2" d="M110.8,256.2c0,0-4,1.7-8.9,3.8s-9,3.7-9,3.7s4-1.7,8.9-3.8S110.8,256.2,110.8,256.2z"/>
	<path class="st2" d="M111.2,257.8c0,0-3.9,1.7-8.8,3.8s-8.9,3.7-8.9,3.7s3.9-1.7,8.8-3.8S111.2,257.7,111.2,257.8z"/>
	<path class="st2" d="M104.6,262.2c0,0-2.3,1-5.2,2.2s-5.2,2.2-5.3,2.1s2.3-1,5.2-2.2S104.6,262.2,104.6,262.2z"/>
	
		<rect x="88" y="274.4" transform="matrix(0.9221 -0.3869 0.3869 0.9221 -100.4364 57.0891)" class="st4" width="7.2" height="7.2"/>
	<path class="st2" d="M106.7,268.6c0,0-2.2,1-5,2.1s-5,2.1-5,2s2.2-1,5-2.1S106.7,268.6,106.7,268.6z"/>
	<path class="st2" d="M115.5,267.3c0,0-4,1.7-8.9,3.8s-9,3.7-9,3.7s4-1.7,8.9-3.8S115.5,267.3,115.5,267.3z"/>
	<path class="st2" d="M115.9,268.9c0,0-3.9,1.7-8.8,3.8s-8.9,3.7-8.9,3.7s4-1.7,8.8-3.8S115.9,268.9,115.9,268.9z"/>
	<path class="st2" d="M109.2,273.3c0,0-2.3,1-5.2,2.2s-5.2,2.2-5.2,2.1s2.3-1,5.2-2.2S109.2,273.3,109.2,273.3z"/>
	
		<rect x="92.7" y="285.6" transform="matrix(0.9221 -0.3869 0.3869 0.9221 -104.3772 59.7631)" class="st4" width="7.2" height="7.2"/>
	<path class="st2" d="M111.4,279.8c0,0-2.2,1-5,2.1s-5,2.1-5,2s2.2-1,5-2.1S111.3,279.7,111.4,279.8z"/>
	<path class="st2" d="M120.2,278.5c0,0-4,1.7-8.9,3.8s-9,3.7-9,3.7s4-1.7,8.9-3.8S120.2,278.4,120.2,278.5z"/>
	<path class="st2" d="M120.6,280c0,0-3.9,1.7-8.8,3.8s-8.9,3.7-8.9,3.7s3.9-1.7,8.8-3.8S120.6,280,120.6,280z"/>
	<path class="st2" d="M113.9,284.5c0,0-2.3,1-5.2,2.2s-5.2,2.2-5.2,2.1s2.3-1,5.2-2.3S113.9,284.4,113.9,284.5z"/>
	
		<rect x="97.3" y="296.7" transform="matrix(0.9221 -0.3869 0.3869 0.9221 -108.3147 62.4348)" class="st4" width="7.2" height="7.2"/>
	<path class="st2" d="M116,290.9c0,0-2.2,1-5,2.1s-5,2.1-5,2s2.2-1,5-2.1S116,290.9,116,290.9z"/>
	<path class="st2" d="M124.8,289.6c0,0-4,1.7-8.9,3.8s-9,3.7-9,3.7s4-1.7,8.9-3.8S124.8,289.6,124.8,289.6z"/>
	<path class="st2" d="M125.2,291.1c0,0-3.9,1.7-8.8,3.8s-8.9,3.7-8.9,3.7s3.9-1.7,8.8-3.8S125.2,291.1,125.2,291.1z"/>
	<path class="st2" d="M118.6,295.6c0,0-2.3,1-5.2,2.2s-5.2,2.2-5.2,2.1s2.3-1,5.2-2.2S118.6,295.5,118.6,295.6z"/>
	
		<rect x="102" y="307.8" transform="matrix(0.9221 -0.3869 0.3869 0.9221 -112.2624 65.1024)" class="st6" width="7.2" height="7.2"/>
	<path class="st6" d="M120.7,302c0,0-2.2,1-5,2.1s-5,2.1-5,2s2.2-1,5-2.1S120.7,302,120.7,302z"/>
	<path class="st6" d="M129.5,300.7c0,0-4,1.7-8.9,3.8s-9,3.7-9,3.7s4-1.7,8.9-3.8S129.5,300.7,129.5,300.7z"/>
	<path class="st6" d="M129.9,302.3c0,0-3.9,1.7-8.8,3.7s-8.9,3.7-8.9,3.7s3.9-1.7,8.8-3.8S129.9,302.2,129.9,302.3z"/>
	<path class="st6" d="M123.2,306.7c0,0-2.3,1-5.2,2.2s-5.2,2.2-5.2,2.1s2.3-1,5.2-2.2S123.2,306.7,123.2,306.7z"/>
	<g class="st3">
		<rect x="97.3" y="296.7" transform="matrix(0.9221 -0.3869 0.3869 0.9221 -108.3353 62.4477)" width="7.2" height="7.2"/>
	</g>
	<g class="st3">
		<rect x="88" y="274.4" transform="matrix(0.9221 -0.3869 0.3869 0.9221 -100.4364 57.0891)" width="7.2" height="7.2"/>
	</g>
</g>
<g id="freepik--Note--inject-192">
	<path class="st6" d="M346.5,198.5l-12.2,39.8c3.4,4.1,7,8.1,13.3,10.1l30.3,8.3l11.8-47L346.5,198.5z"/>
	<polygon class="st4" points="345,195.9 332.8,235.6 346,245.7 376.3,254 389.7,209.1 	"/>
	<path class="st4" d="M338.7,234l-5.9,1.6c1.1,2.2,2.7,4.1,4.6,5.7c2.6,2,5.5,3.5,8.6,4.4C342,243,339.4,238.7,338.7,234z"/>
	<g class="st3">
		<path d="M338.7,234c-2.4,1.3-5,2.9-5.9,1.6c1.1,2.2,2.7,4.1,4.6,5.7c2.6,2,5.5,3.5,8.6,4.4C342,243,339.4,238.7,338.7,234z"/>
	</g>
	<polygon class="st6" points="339.5,204.1 361.2,199.6 360.2,195 338.3,199.2 	"/>
	<polygon class="st6" points="392.3,220.4 380.3,201.8 376.4,204.3 388.2,223.3 	"/>
	<path class="st2" d="M380.5,221.8c0,0.1-7.6-2.1-17-4.9s-17-5.1-17-5.2s7.6,2.1,17,4.9S380.6,221.8,380.5,221.8z"/>
	<path class="st2" d="M378.6,227.9c0,0.1-7.7-2.1-17-4.9s-17-5.1-17-5.2s7.7,2.1,17,4.9S378.6,227.9,378.6,227.9z"/>
	<path class="st2" d="M377.2,233.4c0,0.1-7.6-2.1-17-4.9s-17-5.1-17-5.2s7.6,2.1,17,4.9S377.2,233.3,377.2,233.4z"/>
	<path class="st2" d="M375.6,238.6c0,0.1-7.7-2.1-17-4.9s-17-5.1-17-5.2s7.6,2.1,17,4.9S375.6,238.6,375.6,238.6z"/>
</g>
<g id="freepik--Photos--inject-192">
	
		<rect x="219.7" y="34.7" transform="matrix(1.902288e-02 -0.9998 0.9998 1.902288e-02 176.497 289.2833)" class="st12" width="32" height="40"/>
	<path class="st2" d="M256,39.1h-0.8h-2.2l-8.2-0.1L216,38.4l0.1-0.1c-0.2,9.5-0.4,20.4-0.6,32l0,0l-0.1-0.1l40,0.8l-0.1,0.1
		c0.2-9.6,0.4-17.6,0.5-23.2c0.1-2.8,0.1-5,0.1-6.5c0-0.8,0-1.3,0-1.7L256,39.1l-0.1,0.6c0,0.4,0,1,0,1.7c0,1.5-0.1,3.7-0.1,6.5
		c-0.1,5.6-0.2,13.6-0.4,23.2v0.1h-0.1l-40-0.7h-0.1v-0.2l0,0c0.2-11.5,0.4-22.4,0.6-32v-0.1h0.1l28.9,0.6l8.2,0.2h2.2h0.6L256,39.1
		z"/>
	
		<rect x="221.7" y="36.1" transform="matrix(1.902288e-02 -0.9998 0.9998 1.902288e-02 176.472 289.258)" class="st4" width="27.9" height="37.2"/>
	<g class="st3">
		<polygon points="216.8,68.3 230.1,51.2 237.9,62.2 243.5,56.5 254,69 		"/>
	</g>
	<g class="st3">
		<path d="M241.6,49.3c0,1.6-1.4,2.9-3,2.9c-1.6,0-2.9-1.4-2.9-3c0-1.6,1.4-2.9,3-2.9C240.4,46.3,241.6,47.7,241.6,49.3
			C241.6,49.3,241.6,49.3,241.6,49.3z"/>
	</g>
	
		<rect x="168.1" y="57.4" transform="matrix(0.9922 -0.1245 0.1245 0.9922 -8.6144 25.3164)" class="st12" width="60.4" height="48.3"/>
	<path class="st2" d="M225.3,53.9l-0.3,0l-0.8,0.1l-3.3,0.4L208.6,56l-43.3,5.5l0.1-0.2c1.8,14.3,3.9,30.6,6,47.9l0,0l-0.2-0.2
		l60-7.5l-0.1,0.2c-1.8-14.4-3.2-26.4-4.3-34.8c-0.5-4.2-0.9-7.5-1.2-9.7c-0.1-1.1-0.2-2-0.3-2.6S225.3,53.8,225.3,53.9l0.1,0.8
		c0.1,0.6,0.2,1.4,0.3,2.5c0.3,2.2,0.7,5.5,1.3,9.7c1.1,8.4,2.6,20.4,4.4,34.8v0.2h-0.1l-60,7.6h-0.2v-0.2l0,0
		c-2.2-17.3-4.2-33.7-6-47.9v-0.2h0.2l43.4-5.4l12.2-1.5l3.2-0.4l0.8-0.1L225.3,53.9z"/>
	
		<rect x="170.2" y="60.5" transform="matrix(0.9922 -0.1245 0.1245 0.9922 -8.6142 25.3109)" class="st4" width="56.2" height="42.2"/>
	<g class="st13">
		<polygon points="173,106.1 189.2,77.6 203.3,92.3 210.4,82.6 228.8,99.1 		"/>
	</g>
	<g class="st13">
		<path d="M206,72.2c0.3,2.4-1.4,4.6-3.8,4.9c-2.4,0.3-4.6-1.4-4.9-3.8c-0.3-2.4,1.4-4.6,3.8-4.9C203.5,68.1,205.7,69.8,206,72.2
			C206,72.2,206,72.2,206,72.2z"/>
	</g>
	<polygon class="st6" points="172.8,54.7 162.1,68.7 164.6,72.6 177.2,56.4 	"/>
	<polygon class="st6" points="232.6,90.9 221.9,105 224.4,108.8 237,92.7 	"/>
</g>
</svg>
